<?xml version="1.0" standalone="no"?>
<!DOCTYPE svg PUBLIC "-//W3C//DTD SVG 20010904//EN"
 "http://www.w3.org/TR/2001/REC-SVG-20010904/DTD/svg10.dtd">
<svg version="1.0" xmlns="http://www.w3.org/2000/svg"
 width="1280.000000pt" height="1280.000000pt" viewBox="0 0 1280.000000 1280.000000"
 preserveAspectRatio="xMidYMid meet">

<g transform="translate(0.000000,1280.000000) scale(0.100000,-0.100000)"
fill="#000000" stroke="none">
<path d="M5406 9453 c-17 -79 -120 -448 -165 -593 -28 -91 -51 -171 -51 -178
0 -7 41 21 90 63 l90 76 0 -165 c0 -138 -2 -166 -14 -166 -8 0 -27 -11 -43
-24 -25 -21 -26 -25 -13 -41 34 -41 109 -55 182 -35 71 20 71 67 1 97 l-33 13
0 155 c0 85 4 155 9 155 5 0 50 -32 101 -71 51 -38 94 -69 95 -67 5 5 -25 111
-73 258 -23 69 -50 159 -61 200 -49 184 -94 336 -101 343 -4 5 -10 -4 -14 -20z
m20 -323 c31 -11 64 -58 64 -93 0 -37 -29 -57 -81 -57 -45 0 -48 2 -54 30 -4
17 -13 37 -21 44 -8 8 -11 22 -7 32 6 16 7 16 14 -2 6 -16 8 -14 8 9 1 19 8
30 24 37 12 5 22 9 23 9 1 1 14 -4 30 -9z m-89 -112 c-3 -8 -6 -5 -6 6 -1 11
2 17 5 13 3 -3 4 -12 1 -19z"/>
<path d="M6450 9424 c-55 -149 -151 -257 -319 -360 l-65 -39 90 -17 c49 -10
118 -17 154 -18 l65 0 -3 -69 c-3 -64 -5 -70 -28 -75 -14 -4 -30 -18 -36 -32
-11 -23 -9 -29 11 -45 13 -11 29 -19 37 -19 22 0 16 -15 -11 -30 -32 -17 -32
-44 -1 -67 l24 -18 -30 -32 -31 -32 32 -26 31 -27 0 -529 0 -528 -29 -16 c-86
-44 -505 -322 -760 -504 -63 -44 -118 -81 -122 -81 -14 0 -11 917 2 926 6 4
25 36 41 71 l29 65 -27 70 c-16 39 -34 72 -41 75 -8 3 -13 22 -13 49 0 37 3
44 19 44 11 0 32 10 47 23 23 20 25 26 15 45 -6 12 -24 25 -39 28 -35 9 -42
20 -42 72 l0 42 -40 0 -40 0 0 -55 c0 -40 -4 -55 -14 -55 -7 0 -25 -9 -40 -21
-31 -25 -23 -49 24 -69 26 -11 30 -17 30 -53 0 -22 -6 -45 -14 -51 -8 -6 -26
-39 -41 -74 l-26 -64 28 -69 c15 -38 34 -69 41 -69 9 0 12 -107 11 -502 l0
-503 -107 -80 c-199 -150 -513 -405 -657 -535 -668 -605 -1065 -1085 -1248
-1510 l-36 -85 -173 0 -173 0 0 35 c0 26 6 37 22 46 13 6 21 13 19 15 -3 2 21
3 52 2 l57 -1 -45 7 -45 8 58 1 c37 1 56 -2 52 -8 -11 -17 11 -11 39 11 19 15
26 30 26 54 0 52 -16 59 -135 53 -93 -5 -108 -9 -147 -35 -31 -21 -46 -39 -54
-68 -14 -45 -17 -335 -4 -375 4 -14 8 -21 9 -16 1 5 8 3 16 -4 8 -7 13 -16 10
-20 -3 -5 0 -12 6 -16 8 -4 9 -3 5 4 -4 7 -3 12 3 12 5 0 12 -4 15 -9 11 -17
77 -22 282 -23 149 0 203 -3 195 -11 -6 -6 -40 -10 -77 -9 l-67 3 5 -45 c8
-70 61 -170 118 -226 70 -68 187 -123 320 -151 132 -28 411 -30 592 -6 296 41
663 133 1018 255 104 36 422 157 510 195 32 13 37 13 65 -5 28 -18 28 -19 5
-13 -22 5 -23 5 -6 -6 24 -15 67 16 80 59 7 24 20 36 66 56 65 29 92 33 84 12
-3 -8 -1 -17 5 -21 6 -3 11 -15 11 -25 0 -10 5 -22 12 -26 7 -5 8 -3 3 5 -5
10 -2 9 13 0 12 -7 19 -16 16 -20 -2 -5 6 -13 18 -20 21 -11 22 -11 10 4 -12
14 -10 14 22 5 19 -6 33 -15 30 -20 -3 -4 4 -8 16 -8 12 0 18 5 15 10 -4 6 46
10 144 10 89 0 152 -4 156 -10 3 -5 12 -10 18 -10 8 0 8 3 -2 9 -9 6 1 11 32
15 82 12 107 61 107 206 0 88 -2 100 -19 110 -61 32 -84 3 -91 -114 l-5 -90
-40 -9 c-57 -12 -305 -4 -332 11 -16 9 -23 22 -23 42 0 21 6 30 23 36 32 9
513 251 659 330 1094 595 2061 1292 2817 2029 660 644 1043 1282 983 1638 -33
198 -161 320 -401 385 -89 24 -112 26 -321 26 -285 1 -452 -22 -800 -109 -449
-113 -1014 -324 -1520 -568 -204 -98 -250 -118 -250 -109 0 4 4 12 10 18 6 6
-12 8 -48 6 -48 -3 -61 0 -76 17 -17 19 -18 21 -2 21 9 0 15 4 12 9 -3 5 4 11
15 14 13 4 18 10 14 17 -6 9 -2 9 14 1 16 -9 21 -9 21 1 0 9 3 9 10 -2 7 -10
10 -11 10 -2 0 10 4 10 19 0 11 -7 18 -16 15 -20 -3 -4 1 -5 9 -2 11 4 13 -2
10 -23 -4 -27 -4 -27 11 -9 22 27 20 35 -14 54 -26 15 -30 22 -30 63 0 42 3
48 25 53 20 5 25 12 25 40 0 28 -5 35 -25 40 -23 6 -25 11 -25 67 l0 61 73 -7
72 -7 -39 40 c-21 22 -53 48 -72 58 l-34 19 0 117 c0 77 4 118 11 118 6 0 44
-20 85 -45 72 -44 226 -125 238 -125 3 0 -20 42 -51 93 -108 176 -243 499
-269 640 -3 20 -10 37 -14 37 -4 0 -12 -19 -19 -42 -49 -165 -188 -423 -333
-621 -28 -37 -48 -70 -45 -73 13 -13 201 69 268 116 15 11 30 20 33 20 3 0 6
-53 6 -117 l-1 -118 -39 -18 c-22 -10 -54 -36 -71 -59 l-32 -40 49 7 c27 3 59
8 72 11 21 4 22 2 22 -65 0 -65 -2 -70 -22 -73 -18 -2 -24 -11 -26 -34 -3 -27
1 -33 22 -38 24 -6 26 -11 26 -56 0 -40 -4 -50 -20 -55 -11 -3 -25 -16 -31
-27 -10 -19 -7 -25 21 -48 26 -21 31 -32 28 -59 -3 -30 -10 -36 -118 -92 -215
-112 -530 -288 -712 -398 l-38 -23 0 494 c0 474 1 494 20 518 25 32 25 36 -4
66 l-23 26 23 23 c13 13 24 28 24 34 0 13 -29 41 -41 41 -6 0 -7 5 -4 10 3 6
14 10 24 10 24 0 54 34 49 57 -1 10 -18 25 -35 33 -32 15 -33 17 -33 77 0 50
-3 62 -17 66 -10 3 12 5 50 6 64 1 267 27 275 36 2 2 -9 10 -26 19 -58 30
-150 117 -192 181 -23 36 -55 102 -71 147 -27 80 -28 81 -39 52z m31 -293 c34
-34 30 -61 -10 -61 -44 0 -68 11 -79 34 -11 25 -5 40 18 49 29 11 42 7 71 -22z
m-58 -148 c-7 -2 -19 -2 -25 0 -7 3 -2 5 12 5 14 0 19 -2 13 -5z m6 -406 c-2
-1 -11 -8 -20 -15 -14 -10 -18 -10 -23 3 -4 11 1 15 21 15 14 0 24 -1 22 -3z
m3111 -157 c337 -42 490 -178 490 -438 0 -445 -545 -1151 -1475 -1911 -247
-202 -744 -567 -786 -578 -10 -3 -56 26 -110 69 -244 191 -229 177 -229 214 0
19 3 34 6 34 3 0 81 -58 174 -130 93 -72 172 -130 175 -130 3 0 5 31 5 68 l0
68 -142 109 c-79 61 -152 118 -163 127 -11 9 -28 23 -38 30 -13 10 -18 24 -15
50 l3 37 150 -116 c83 -63 162 -124 178 -135 l27 -19 0 73 c0 71 -1 73 -33 94
-30 20 -108 80 -260 202 l-67 54 2 841 3 840 135 59 c825 362 1543 540 1970
488z m-2200 -1412 l0 -823 -53 -38 c-162 -118 -326 -254 -327 -269 0 -15 27
-95 36 -107 3 -4 296 232 314 254 21 25 30 17 30 -25 0 -34 -5 -43 -34 -62
-65 -44 -338 -262 -343 -275 -6 -14 25 -113 35 -113 10 1 57 37 186 145 34 28
82 68 109 89 l47 38 0 -40 0 -40 -167 -131 c-93 -72 -180 -141 -194 -153 l-26
-23 22 -58 21 -58 30 23 c16 12 93 76 172 141 l142 117 0 -54 c0 -61 14 -79
57 -74 26 3 28 6 33 61 l5 57 60 -45 c33 -26 81 -63 108 -83 26 -20 47 -39 47
-43 0 -11 -33 -35 -170 -121 -316 -200 -598 -364 -877 -510 l-133 -70 0 30 c0
48 -18 55 -128 50 -163 -8 -211 -47 -220 -183 l-5 -70 -61 -28 c-33 -15 -64
-27 -68 -27 -5 0 -8 65 -8 144 0 157 -5 170 -57 164 -45 -5 -53 -35 -53 -210
0 -87 -3 -158 -6 -158 -5 0 -158 133 -249 217 -139 127 -175 154 -201 151 -15
-2 -36 -15 -47 -29 -17 -24 -20 -49 -24 -236 -3 -115 -3 -225 1 -244 7 -41 46
-64 80 -48 21 10 21 10 1 -6 -12 -10 -30 -14 -47 -11 -16 3 -76 -12 -160 -40
-181 -61 -355 -109 -569 -158 -263 -60 -620 -76 -797 -37 -173 38 -287 112
-344 225 -53 103 -51 277 4 441 11 33 24 64 29 69 5 6 9 -93 9 -232 0 -164 3
-242 11 -242 5 0 8 -4 4 -9 -8 -15 32 -23 54 -12 32 18 41 67 41 232 0 88 3
159 6 159 8 0 63 -60 56 -60 -4 -1 9 -9 28 -19 19 -9 34 -23 33 -29 -2 -7 0
-11 5 -10 4 2 18 -5 32 -15 13 -9 20 -17 14 -17 -5 0 -15 5 -22 12 -7 7 -12
10 -12 7 0 -3 12 -16 27 -30 14 -13 23 -18 18 -10 -5 9 -4 12 3 7 7 -4 12 -14
12 -23 0 -9 6 -13 14 -10 8 3 22 -4 33 -16 18 -21 18 -21 -2 -8 -11 8 -3 -2
18 -22 21 -21 41 -37 45 -37 4 0 13 -9 20 -20 7 -11 19 -20 27 -20 8 0 14 -5
12 -12 -1 -6 8 -17 21 -23 13 -7 22 -16 21 -21 -2 -5 9 -13 24 -18 22 -8 30
-5 54 18 l28 28 3 250 c3 268 2 278 -47 278 -54 0 -56 -5 -59 -195 -2 -96 -6
-175 -9 -175 -3 0 -57 46 -121 103 -324 287 -302 270 -339 264 -19 -3 -33 -3
-31 1 27 58 85 159 143 249 151 230 311 420 595 703 287 287 570 531 938 808
l122 93 0 -131 c0 -120 -1 -130 -19 -130 -31 0 -192 -285 -239 -425 -91 -269
-37 -485 187 -743 30 -35 60 -66 67 -69 12 -4 84 55 84 70 0 4 24 39 53 78
162 212 223 411 188 612 -14 81 -36 131 -116 264 -35 57 -71 127 -80 154 -10
28 -23 53 -31 56 -11 4 -14 37 -14 163 l0 158 98 70 c205 146 537 362 750 489
l72 43 0 -425 0 -424 -170 -173 -170 -173 0 -117 c0 -65 4 -118 8 -118 4 0 57
54 117 120 61 67 134 147 162 178 l53 57 0 -110 0 -111 -170 -169 -170 -170 0
-122 c0 -68 3 -123 7 -123 4 0 18 12 31 27 49 57 294 323 298 323 2 0 4 -39 3
-87 l0 -88 -175 -139 -174 -139 0 -123 c0 -68 2 -124 5 -124 6 0 115 114 256
266 l84 91 5 -36 c5 -35 5 -35 51 -33 l46 3 89 -136 c68 -104 90 -131 96 -118
3 10 7 79 7 153 l1 135 -95 85 -94 85 0 100 0 100 163 -169 163 -168 7 32 c3
18 6 71 6 119 l0 86 -57 53 c-32 30 -109 104 -170 164 l-113 111 0 111 0 111
162 -169 c135 -140 163 -165 169 -150 4 11 8 62 8 115 l1 96 -122 120 c-68 67
-144 140 -171 164 l-47 42 2 465 3 465 150 85 c116 65 700 370 713 372 1 0 2
-370 2 -822z m-1016 -2360 c-40 -21 -75 -38 -78 -38 -17 0 -3 41 20 59 19 15
39 20 78 19 l53 -1 -73 -39z m111 32 c-3 -5 -10 -10 -16 -10 -5 0 -9 5 -9 10
0 6 7 10 16 10 8 0 12 -4 9 -10z m-944 -77 c10 -11 10 -14 2 -9 -7 4 -13 5
-13 2 0 -3 16 -13 35 -22 20 -9 33 -19 31 -22 -3 -3 -14 1 -23 8 -10 7 2 -7
27 -32 25 -24 47 -43 50 -40 3 2 -8 15 -23 28 -15 13 -24 24 -20 24 11 0 71
-61 75 -75 1 -5 8 -9 16 -7 8 2 12 -4 10 -14 -2 -9 3 -19 11 -22 9 -3 11 0 6
8 -6 9 -4 11 4 6 7 -5 10 -14 7 -22 -3 -9 0 -11 11 -7 11 4 14 2 9 -5 -4 -7
-2 -12 5 -12 18 0 90 -68 79 -75 -6 -4 -10 -2 -10 3 0 4 -14 18 -30 31 l-30
22 -118 -47 c-64 -25 -123 -48 -130 -51 -10 -4 -13 31 -12 171 1 97 5 176 10
176 4 0 14 -8 21 -17z m-2445 -146 c3 -3 19 -4 34 -1 15 4 31 1 34 -5 11 -17
29 -13 22 4 -4 11 2 15 27 15 18 0 38 -5 44 -11 8 -8 17 -7 33 3 15 9 24 9 27
2 2 -6 21 -8 52 -4 30 4 48 2 48 -5 0 -5 -19 -10 -41 -10 -41 0 -41 0 -50 -47
l-9 -48 -107 0 c-115 0 -165 11 -180 41 -14 25 -2 72 16 65 8 -3 14 -1 14 3 0
10 26 9 36 -2z m374 8 c0 -2 -9 -9 -20 -15 -16 -9 -20 -8 -20 5 0 8 9 15 20
15 11 0 20 -2 20 -5z m2410 -175 c11 -11 16 -20 12 -20 -5 0 -17 9 -27 20 -10
11 -15 20 -12 20 4 0 16 -9 27 -20z m-1720 -50 c13 -8 13 -10 -2 -10 -9 0 -20
5 -23 10 -8 13 5 13 25 0z m-503 -6 c-3 -3 -12 -4 -19 -1 -8 3 -5 6 6 6 11 1
17 -2 13 -5z"/>
<path d="M4339 4784 c-11 -14 -14 -65 -14 -273 l0 -256 25 -3 c14 -2 29 -8 35
-13 5 -5 14 -9 20 -9 5 0 3 5 -5 10 -10 6 58 9 200 9 123 -1 204 -4 190 -9
-21 -7 -22 -8 -4 -9 11 -1 25 4 30 9 6 6 24 13 40 16 39 7 70 38 89 89 13 33
16 73 13 203 -3 155 -4 161 -28 187 -54 58 -65 60 -331 63 -223 3 -247 2 -260
-14z m468 -102 c6 -4 -55 -6 -135 -4 -230 4 -254 8 -57 10 99 1 185 -2 192 -6z
m30 -25 c4 -5 8 -69 8 -143 0 -109 -3 -136 -15 -144 -25 -15 -108 -21 -255
-18 l-140 3 -3 145 c-1 79 0 150 3 158 4 11 42 13 199 10 107 -2 198 -7 203
-11z"/>
<path d="M5119 4783 c-11 -12 -15 -73 -17 -274 l-3 -257 32 -7 c23 -5 28 -10
18 -16 -12 -7 -12 -9 1 -9 8 0 25 12 37 27 23 26 23 30 23 278 0 182 -3 254
-12 263 -17 17 -63 15 -79 -5z"/>
<path d="M6308 4673 c6 -2 18 -2 25 0 6 3 1 5 -13 5 -14 0 -19 -2 -12 -5z"/>
<path d="M3168 4453 c7 -3 16 -2 19 1 4 3 -2 6 -13 5 -11 0 -14 -3 -6 -6z"/>
<path d="M1501 4787 c-6 -8 -14 -28 -17 -45 -5 -24 -2 -33 10 -38 9 -3 16 -12
16 -20 0 -11 19 -14 93 -12 l92 2 -90 6 -90 6 98 2 c53 1 96 -1 96 -5 -1 -5
-1 -10 0 -13 1 -3 2 -97 4 -209 1 -153 5 -205 15 -209 6 -2 10 -7 7 -12 -3 -4
5 -6 17 -3 19 4 20 3 8 -6 -19 -14 -5 -14 20 -1 39 21 45 49 50 255 l5 200 90
1 90 1 -90 -7 -90 -6 89 -2 c85 -2 90 -1 112 26 26 29 30 53 14 83 -10 18 -24
19 -274 19 -209 0 -266 -3 -275 -13z"/>
<path d="M2150 4781 c-15 -29 -14 -538 2 -547 7 -5 8 -3 3 6 -6 10 -4 12 9 7
10 -4 23 -7 29 -8 7 0 3 -4 -8 -9 -15 -6 -16 -9 -4 -9 9 -1 27 8 40 19 20 18
24 33 29 110 3 48 8 92 13 96 4 4 7 0 7 -9 0 -11 8 -17 23 -18 12 0 38 -7 57
-15 33 -13 33 -14 5 -9 -22 4 -26 3 -15 -5 8 -5 27 -10 42 -10 15 0 30 -5 34
-12 5 -8 1 -9 -12 -4 -12 5 -15 4 -9 -2 6 -5 21 -13 35 -17 19 -5 21 -4 10 4
-27 19 -2 12 32 -9 18 -11 26 -20 18 -21 -25 -1 22 -18 52 -18 15 -1 30 -6 34
-13 5 -8 1 -9 -12 -5 -18 7 -18 7 0 -8 11 -8 27 -15 35 -15 14 0 14 1 1 10
-30 19 -1 9 40 -14 27 -15 37 -26 28 -30 -8 -3 -6 -5 6 -3 26 3 61 67 53 97
-5 18 -22 32 -67 53 -33 15 -64 27 -68 27 -5 0 -20 10 -33 21 l-24 22 40 -7
c31 -5 36 -4 25 4 -12 9 -9 10 12 6 15 -3 30 -2 33 4 3 5 15 10 26 10 63 0
103 75 97 181 -4 69 -5 73 -42 105 -53 46 -104 54 -351 54 -202 0 -215 -1
-225 -19z m285 -101 l-160 -6 185 -1 185 0 9 -42 c16 -73 7 -76 -212 -76
l-187 0 -3 44 c-2 25 -1 55 3 68 l5 23 168 -2 167 -2 -160 -6z"/>
<path d="M7162 4775 c-15 -33 -17 -511 -2 -520 6 -4 8 -11 5 -16 -8 -12 18
-12 31 1 7 7 95 10 251 8 133 -2 239 0 236 5 -2 4 4 7 15 7 21 0 63 43 80 83
8 18 12 86 12 183 0 181 -8 208 -73 245 -41 23 -49 24 -293 27 l-250 3 -12
-26z m480 -93 c10 -4 -69 -7 -175 -6 l-192 1 185 -6 c102 -4 192 -11 201 -15
14 -6 17 -26 18 -121 1 -62 -1 -125 -5 -139 -9 -38 -58 -47 -246 -44 l-163 3
-3 148 c-1 90 2 155 8 167 10 19 21 20 183 19 95 0 180 -3 189 -7z"/>
<path d="M8054 4791 c-50 -12 -93 -43 -111 -81 -27 -53 -32 -321 -8 -384 10
-25 22 -44 29 -43 6 1 10 -4 8 -12 -2 -8 3 -11 11 -8 8 3 32 0 52 -7 23 -8 32
-16 24 -19 -9 -3 -9 -6 -2 -6 6 -1 15 4 18 9 3 6 20 10 36 10 18 0 28 -4 24
-10 -3 -5 1 -10 9 -10 9 0 16 5 16 10 0 6 61 10 164 10 l164 0 12 29 c8 21 9
35 1 49 -10 19 -23 20 -213 24 -235 4 -248 7 -248 69 0 24 4 38 10 34 6 -3 10
-2 10 2 0 8 150 7 237 0 17 -2 29 1 27 5 -3 4 28 7 67 7 50 -1 68 -4 58 -10
-11 -8 -10 -9 5 -7 31 5 59 60 46 92 l-10 26 -225 0 -225 0 0 39 c0 54 16 63
117 65 l88 1 20 37 c17 32 18 39 5 62 -13 25 -17 26 -99 25 -47 -1 -100 -4
-117 -8z m154 -108 c-21 -2 -55 -2 -75 0 -21 2 -4 4 37 4 41 0 58 -2 38 -4z"/>
<path d="M8755 4793 c-129 -28 -150 -76 -143 -322 3 -131 7 -154 24 -178 11
-15 27 -28 35 -31 11 -3 11 -2 -1 7 -20 14 -13 13 35 -4 29 -10 91 -14 233
-15 152 0 192 -3 186 -12 -6 -10 -4 -10 8 0 27 22 41 67 28 91 -10 20 -19 21
-183 22 -106 0 -186 5 -207 12 l-35 12 -3 140 c-4 185 -16 175 218 173 l175
-2 -180 -6 -180 -6 177 -2 c192 -2 198 -1 219 56 7 18 5 31 -6 48 -15 24 -17
24 -198 23 -100 -1 -191 -3 -202 -6z"/>
<path d="M9392 4782 c-73 -27 -99 -54 -113 -121 -12 -57 -7 -284 6 -328 8 -24
72 -66 120 -78 34 -8 325 -7 364 1 21 5 23 3 11 -6 -21 -16 -1 -8 37 15 64 39
73 72 73 263 0 192 -3 202 -83 244 -37 20 -60 23 -202 25 -136 3 -168 1 -213
-15z m373 -115 c9 -13 13 -59 14 -151 2 -114 -1 -135 -15 -147 -13 -11 -54
-14 -174 -14 -208 0 -200 -6 -200 164 0 124 0 125 28 148 26 22 33 23 180 21
135 -3 155 -5 167 -21z"/>
<path d="M9508 4673 c39 -2 105 -2 145 0 39 1 7 3 -73 3 -80 0 -112 -2 -72 -3z"/>
<path d="M10049 4784 c-11 -13 -15 -68 -17 -264 -3 -218 -1 -249 13 -264 9 -9
13 -16 8 -16 -11 0 20 -20 32 -20 6 0 3 5 -5 11 -12 8 -9 9 11 5 38 -8 59 34
59 122 0 39 4 73 9 76 10 7 102 -32 152 -64 19 -12 26 -19 16 -16 -11 3 -16 2
-12 -5 4 -5 14 -9 23 -7 10 1 33 -4 52 -12 44 -18 202 -104 175 -95 -16 5 -17
4 -8 -6 15 -15 37 1 59 43 24 47 10 66 -77 107 -44 21 -76 41 -72 44 3 4 -5 7
-18 8 -18 1 -15 3 11 9 77 17 105 20 90 10 -11 -7 -11 -10 -2 -10 13 0 58 26
79 46 22 21 43 87 43 138 0 70 -25 115 -80 146 -44 24 -50 25 -286 28 -218 3
-242 2 -255 -14z m471 -104 c13 -9 13 -10 0 -10 -9 -1 -7 -5 6 -10 24 -9 35
-46 23 -77 -10 -27 -51 -33 -241 -33 l-158 0 0 60 0 60 178 2 177 2 -175 6
-175 6 175 2 c100 1 181 -2 190 -8z"/>
<path d="M10865 4793 c-89 -19 -117 -57 -123 -166 -4 -69 -2 -82 14 -94 10 -7
14 -13 8 -14 -5 0 14 -9 41 -19 39 -14 80 -19 186 -19 106 -1 138 -4 142 -15
3 -7 16 -16 29 -19 l23 -6 -25 19 -25 20 31 -11 c24 -8 32 -16 33 -37 3 -50 2
-64 -4 -71 -4 -3 -102 -7 -218 -9 -182 -3 -214 -5 -224 -19 -16 -20 -17 -69
-3 -78 6 -4 8 -11 5 -16 -4 -5 -1 -9 4 -9 6 0 11 5 11 12 0 9 3 9 12 0 7 -7
17 -12 23 -12 5 0 3 5 -5 10 -10 6 55 10 192 10 113 0 214 3 224 7 12 5 15 3
9 -6 -6 -10 -3 -11 13 -2 33 18 71 69 78 107 11 57 0 141 -22 165 -42 46 -71
53 -245 59 -181 5 -202 12 -197 59 3 24 8 27 58 32 l55 5 -45 5 c-40 5 -38 6
20 7 45 1 60 -1 50 -8 -13 -8 -13 -10 1 -10 9 0 28 11 43 25 28 26 35 72 14
93 -12 12 -138 15 -183 5z"/>
<path d="M10835 4470 c27 -12 43 -12 25 0 -8 5 -22 9 -30 9 -10 0 -8 -3 5 -9z"/>
<path d="M10963 4463 c32 -2 81 -2 110 0 29 2 3 3 -58 3 -60 0 -84 -1 -52 -3z"/>
<path d="M10493 4433 c9 -2 23 -2 30 0 6 3 -1 5 -18 5 -16 0 -22 -2 -12 -5z"/>
<path d="M10230 4395 c0 -4 60 -35 69 -35 8 0 -32 26 -51 33 -10 4 -18 5 -18
2z"/>
<path d="M10424 4294 c38 -19 70 -33 72 -31 4 4 -121 67 -133 67 -4 -1 23 -16
61 -36z"/>
<path d="M3010 4230 c8 -5 20 -10 25 -10 6 0 3 5 -5 10 -8 5 -19 10 -25 10 -5
0 -3 -5 5 -10z"/>
<path d="M7618 4233 c6 -2 18 -2 25 0 6 3 1 5 -13 5 -14 0 -19 -2 -12 -5z"/>
<path d="M8758 4233 c7 -3 16 -2 19 1 4 3 -2 6 -13 5 -11 0 -14 -3 -6 -6z"/>
<path d="M9690 4230 c-18 -12 -2 -12 25 0 13 6 15 9 5 9 -8 0 -22 -4 -30 -9z"/>
<path d="M10848 4233 c6 -2 18 -2 25 0 6 3 1 5 -13 5 -14 0 -19 -2 -12 -5z"/>
<path d="M11158 4233 c7 -3 16 -2 19 1 4 3 -2 6 -13 5 -11 0 -14 -3 -6 -6z"/>
<path d="M6568 4223 c7 -3 16 -2 19 1 4 3 -2 6 -13 5 -11 0 -14 -3 -6 -6z"/>
<path d="M7300 3915 c0 -33 2 -35 35 -35 33 0 35 2 35 35 0 33 -2 35 -35 35
-33 0 -35 -2 -35 -35z"/>
<path d="M8517 3944 c-4 -4 -7 -20 -7 -36 0 -26 3 -28 41 -28 39 0 40 1 37 33
-3 28 -7 32 -33 35 -17 2 -34 0 -38 -4z"/>
<path d="M9890 3885 c0 -36 -2 -65 -5 -65 -2 0 -20 7 -39 16 -45 22 -94 12
-131 -26 -36 -38 -46 -119 -21 -172 31 -65 117 -89 170 -47 l26 20 0 -20 c0
-17 6 -21 35 -21 l35 0 0 190 0 190 -35 0 -35 0 0 -65z m-19 -117 c14 -26 14
-90 0 -117 -10 -18 -19 -22 -54 -19 -39 3 -43 6 -54 40 -15 47 -1 106 29 117
31 11 67 2 79 -21z"/>
<path d="M10660 3760 l0 -190 35 0 c35 0 35 0 35 43 0 32 6 49 21 63 21 18 22
18 33 0 64 -106 64 -106 101 -106 19 0 35 3 35 7 0 3 -23 42 -51 86 l-51 79
48 49 48 49 -45 0 c-39 0 -50 -5 -84 -40 -21 -22 -43 -40 -47 -40 -4 0 -8 43
-8 95 l0 95 -35 0 -35 0 0 -190z"/>
<path d="M7828 3914 c-21 -11 -28 -22 -28 -44 0 -23 -4 -30 -20 -30 -15 0 -20
-7 -20 -25 0 -18 5 -25 20 -25 19 0 20 -7 20 -95 0 -89 1 -95 24 -110 15 -10
40 -15 63 -13 33 3 38 7 41 30 3 23 -1 27 -25 30 -28 3 -28 4 -31 81 l-3 77
31 0 c25 0 30 4 30 24 0 19 -6 25 -27 28 -25 3 -28 7 -31 46 -3 47 -5 48 -44
26z"/>
<path d="M7558 3831 c-31 -17 -38 -18 -38 -6 0 11 -11 15 -35 15 l-36 0 3
-132 3 -133 35 0 35 0 5 95 c3 52 8 100 12 106 12 19 56 22 78 7 18 -13 20
-25 20 -114 l0 -100 38 3 37 3 0 113 c-1 100 -3 114 -21 133 -31 30 -91 35
-136 10z"/>
<path d="M8033 3834 c-91 -45 -97 -191 -11 -244 59 -36 161 -20 188 29 14 27
14 28 -22 33 -21 4 -37 -1 -50 -14 -10 -10 -26 -18 -36 -18 -27 0 -62 29 -62
51 0 17 8 19 95 19 l95 0 0 28 c-2 98 -107 160 -197 116z m105 -57 c6 -5 12
-18 12 -28 0 -16 -8 -19 -55 -19 -57 0 -68 10 -42 42 21 28 53 29 85 5z"/>
<path d="M8382 3828 c-19 -19 -22 -20 -22 -5 0 13 -9 17 -35 17 l-35 0 0 -136
0 -135 38 3 37 3 3 90 c3 104 17 130 64 120 23 -6 28 -3 34 20 12 47 -44 62
-84 23z"/>
<path d="M8730 3832 c-45 -22 -80 -75 -80 -121 0 -151 213 -197 283 -61 47 90
-26 200 -133 200 -19 0 -51 -8 -70 -18z m106 -50 c37 -24 45 -101 14 -132 -24
-24 -77 -26 -102 -3 -28 25 -25 107 4 127 24 17 65 21 84 8z"/>
<path d="M9104 3833 c-13 -13 -19 -14 -22 -5 -2 6 -19 12 -38 12 l-34 0 0
-135 0 -135 35 0 35 0 0 68 c0 115 25 165 73 146 23 -9 47 43 26 57 -22 14
-56 11 -75 -8z"/>
<path d="M9260 3832 c-43 -21 -59 -61 -41 -96 16 -28 38 -39 114 -56 50 -12
58 -16 55 -34 -4 -31 -69 -35 -98 -6 -16 16 -28 19 -55 14 -30 -5 -33 -8 -24
-26 18 -34 70 -58 127 -58 80 0 131 35 132 91 0 37 -29 59 -107 80 -75 21 -96
35 -73 49 23 15 59 12 90 -6 18 -11 37 -14 54 -10 23 6 25 9 15 27 -24 46
-126 63 -189 31z"/>
<path d="M10080 3828 c-43 -29 -62 -66 -62 -123 -2 -83 53 -135 142 -135 41 0
103 36 108 62 5 25 -49 31 -74 7 -11 -10 -30 -19 -41 -19 -20 0 -63 42 -63 61
0 5 45 9 101 9 l101 0 -7 33 c-17 78 -56 116 -126 124 -35 4 -51 0 -79 -19z
m118 -56 c25 -32 14 -42 -43 -42 -48 0 -55 3 -55 19 0 44 68 59 98 23z"/>
<path d="M10390 3839 c-30 -12 -59 -47 -60 -72 0 -35 51 -72 118 -87 55 -11
63 -16 60 -34 -4 -31 -69 -35 -98 -6 -16 16 -28 20 -51 15 -39 -9 -35 -32 10
-62 68 -46 201 -21 217 41 14 57 -16 86 -110 111 -69 17 -88 31 -66 45 23 15
59 12 90 -6 18 -11 37 -14 54 -10 23 6 25 9 15 27 -22 41 -118 62 -179 38z"/>
<path d="M7300 3705 l0 -135 35 0 35 0 0 135 0 135 -35 0 -35 0 0 -135z"/>
<path d="M8512 3708 l3 -133 35 0 35 0 3 133 3 132 -41 0 -41 0 3 -132z"/>
</g>
</svg>
