<svg width="26" height="26" viewBox="0 0 26 26" fill="none" xmlns="http://www.w3.org/2000/svg">
<g opacity="0.2">
<path d="M14.8419 24.9498C14.7373 24.9848 14.6323 25.0171 14.5269 25.0466C14.6323 25.0171 14.7373 24.9848 14.8419 24.9498Z" fill="#D2CDC9"/>
<path d="M15.0948 24.9179C15.0448 24.9368 14.9948 24.9541 14.9448 24.9718C14.9948 24.9541 15.0448 24.9368 15.0948 24.9179Z" fill="#D2CDC9"/>
<path d="M14.2476 25.0374C14.1252 25.0657 14.002 25.0909 13.8784 25.1121C14.002 25.0909 14.1252 25.0657 14.2476 25.0374Z" fill="#D2CDC9"/>
<path d="M14.489 25.016C14.4302 25.0321 14.371 25.0471 14.312 25.0612C14.371 25.0471 14.4302 25.0321 14.489 25.016Z" fill="#D2CDC9"/>
<path d="M15.4368 24.849C15.3927 24.8682 15.3485 24.8875 15.3042 24.906C15.3485 24.8875 15.3927 24.8682 15.4368 24.849Z" fill="#D2CDC9"/>
<path d="M16.2822 24.637C16.2466 24.6579 16.2109 24.6775 16.1753 24.698C16.2109 24.6775 16.2466 24.6579 16.2822 24.637Z" fill="#D2CDC9"/>
<path d="M16.0267 24.7073C15.988 24.7282 15.9491 24.7494 15.9102 24.7694C15.9491 24.7494 15.988 24.7285 16.0267 24.7073Z" fill="#D2CDC9"/>
<path d="M15.6897 24.7923C15.6487 24.812 15.6073 24.8305 15.5659 24.8493C15.6073 24.8305 15.6487 24.812 15.6897 24.7923Z" fill="#D2CDC9"/>
<path d="M13.8732 25.0855C13.8071 25.0969 13.741 25.1072 13.6747 25.1162C13.741 25.1072 13.8071 25.0969 13.8732 25.0855Z" fill="#D2CDC9"/>
<path d="M25.3735 12.5561C25.3735 5.62263 19.7508 0 12.8174 0C5.88386 0 0.26123 5.62263 0.26123 12.5561C0.26123 19.4896 5.88386 25.1122 12.8174 25.1122C12.8911 25.1122 12.9645 25.1107 13.0381 25.1094V15.335H10.3405V12.1911H13.0381V9.87768C13.0381 7.19463 14.676 5.73432 17.0693 5.73432C18.2154 5.73432 19.2006 5.81977 19.4878 5.8579V8.66203H17.8374C16.5354 8.66203 16.2832 9.28087 16.2832 10.1888V12.1911H19.3966L18.9908 15.335H16.2832V24.6271C21.5315 23.1226 25.3735 18.2874 25.3735 12.5561Z" fill="#180048"/>
<path d="M13.6469 25.0998C13.5163 25.1171 13.385 25.1308 13.2534 25.1399C13.385 25.1308 13.5163 25.1171 13.6469 25.0998Z" fill="#D2CDC9"/>
<path d="M13.2467 25.1273C13.1774 25.132 13.1078 25.1355 13.0383 25.1379C13.1078 25.1355 13.1774 25.132 13.2467 25.1273Z" fill="#D2CDC9"/>
</g>
</svg>
