<svg width="26" height="26" viewBox="0 0 26 26" fill="none" xmlns="http://www.w3.org/2000/svg">
<g opacity="0.2">
<path d="M11.5343 14.9375L15.6266 12.5806L11.5343 10.2236L11.5343 14.9375Z" fill="#180048"/>
<path fill-rule="evenodd" clip-rule="evenodd" d="M0.522583 12.5806C0.522583 5.63361 6.15619 0 13.1032 0C20.0503 0 25.6839 5.63361 25.6839 12.5806C25.6839 19.5277 20.0503 25.1613 13.1032 25.1613C6.15619 25.1613 0.522583 19.5277 0.522583 12.5806ZM20.6406 16.3752C20.9642 15.1449 20.9642 12.5935 20.9642 12.5935C20.9642 12.5935 20.9773 10.0294 20.6406 8.79912C20.4592 8.1257 19.9282 7.59454 19.2548 7.41332C18.0245 7.07661 13.1032 7.07661 13.1032 7.07661C13.1032 7.07661 8.182 7.07661 6.9517 7.40046C6.29114 7.58167 5.74711 8.1257 5.5659 8.79912C5.24205 10.0294 5.24205 12.5806 5.24205 12.5806C5.24205 12.5806 5.24205 15.1449 5.5659 16.3622C5.74731 17.0356 6.27828 17.5668 6.9517 17.748C8.19486 18.0847 13.1032 18.0847 13.1032 18.0847C13.1032 18.0847 18.0245 18.0847 19.2548 17.7608C19.9282 17.5796 20.4592 17.0486 20.6406 16.3752Z" fill="#180048"/>
</g>
</svg>
