<svg width="26" height="26" viewBox="0 0 26 26" fill="none" xmlns="http://www.w3.org/2000/svg">
<g opacity="0.2">
<path fill-rule="evenodd" clip-rule="evenodd" d="M0.785156 13.4195C0.785156 6.47248 6.41877 0.838867 13.3658 0.838867C20.3128 0.838867 25.9464 6.47248 25.9464 13.4195C25.9464 20.3665 20.3128 26.0002 13.3658 26.0002C6.41877 26.0002 0.785156 20.3665 0.785156 13.4195ZM6.64453 19.8576H9.70849V10.6396H6.64453V19.8576ZM8.17813 9.38056H8.15816C7.13 9.38056 6.46503 8.67278 6.46503 7.78821C6.46503 6.88367 7.15035 6.19547 8.19848 6.19547C9.24661 6.19547 9.89161 6.88367 9.91158 7.78821C9.91158 8.67278 9.24661 9.38056 8.17813 9.38056ZM17.6944 19.8573H20.758V14.5717C20.758 11.7404 19.2465 10.4229 17.2306 10.4229C15.6051 10.4229 14.8766 11.3163 14.4694 11.9445V10.6393H11.4056C11.4458 11.5041 11.4056 19.8573 11.4056 19.8573H14.4694V14.7095C14.4694 14.434 14.4892 14.1588 14.5702 13.9618C14.7917 13.4115 15.2958 12.8413 16.1422 12.8413C17.2508 12.8413 17.6944 13.6865 17.6944 14.9259V19.8573Z" fill="#180048"/>
</g>
</svg>
