<svg width="26" height="26" viewBox="0 0 26 26" fill="none" xmlns="http://www.w3.org/2000/svg">
<g opacity="0.2">
<path d="M14.9887 13.4193C14.9887 14.7492 13.9106 15.8273 12.5807 15.8273C11.2507 15.8273 10.1726 14.7492 10.1726 13.4193C10.1726 12.0894 11.2507 11.0113 12.5807 11.0113C13.9106 11.0113 14.9887 12.0894 14.9887 13.4193Z" fill="#180048"/>
<path fill-rule="evenodd" clip-rule="evenodd" d="M18.2103 9.15873C18.0945 8.84506 17.9098 8.56114 17.6699 8.3281C17.4368 8.08814 17.1531 7.90347 16.8392 7.78771C16.5847 7.68885 16.2023 7.57118 15.498 7.53912C14.7361 7.50437 14.5076 7.49689 12.5788 7.49689C10.6497 7.49689 10.4213 7.50418 9.65955 7.53893C8.95523 7.57118 8.57264 7.68885 8.31829 7.78771C8.00442 7.90347 7.72051 8.08814 7.48765 8.3281C7.2477 8.56114 7.06302 8.84487 6.94708 9.15873C6.84822 9.41328 6.73054 9.79586 6.69848 10.5002C6.66374 11.2619 6.65625 11.4903 6.65625 13.4194C6.65625 15.3483 6.66374 15.5767 6.69848 16.3386C6.73054 17.0429 6.84822 17.4253 6.94708 17.6799C7.06302 17.9937 7.2475 18.2775 7.48746 18.5105C7.72051 18.7505 8.00423 18.9351 8.31809 19.0509C8.57264 19.15 8.95523 19.2676 9.65955 19.2997C10.4213 19.3344 10.6495 19.3417 12.5786 19.3417C14.5078 19.3417 14.7363 19.3344 15.4978 19.2997C16.2021 19.2676 16.5847 19.15 16.8392 19.0509C17.4693 18.8079 17.9672 18.3099 18.2103 17.6799C18.3091 17.4253 18.4268 17.0429 18.4591 16.3386C18.4938 15.5767 18.5011 15.3483 18.5011 13.4194C18.5011 11.4903 18.4938 11.2619 18.4591 10.5002C18.427 9.79586 18.3093 9.41328 18.2103 9.15873ZM12.5769 17.1289C10.5281 17.1289 8.86719 15.4682 8.86719 13.4193C8.86719 11.3705 10.5281 9.70978 12.5769 9.70978C14.6256 9.70978 16.2865 11.3705 16.2865 13.4193C16.2865 15.4682 14.6256 17.1289 12.5769 17.1289ZM15.5664 9.56302C15.5664 10.0418 15.9546 10.4299 16.4333 10.4299C16.9121 10.4299 17.3 10.0418 17.3002 9.56302C17.3002 9.08426 16.9121 8.69611 16.4333 8.69611C15.9546 8.69611 15.5664 9.08426 15.5664 9.56302Z" fill="#180048"/>
<path fill-rule="evenodd" clip-rule="evenodd" d="M0 13.4193C0 6.47229 5.63361 0.838684 12.5806 0.838684C19.5277 0.838684 25.1613 6.47229 25.1613 13.4193C25.1613 20.3664 19.5277 26 12.5806 26C5.63361 26 0 20.3664 0 13.4193ZM19.4242 18.1511C19.6028 17.6916 19.725 17.1665 19.76 16.3975C19.7953 15.6272 19.8036 15.3811 19.8036 13.4192C19.8036 11.4573 19.7953 11.2112 19.7602 10.4408C19.725 9.67181 19.6029 9.14679 19.4242 8.68722C19.243 8.2052 18.9585 7.76867 18.5911 7.40777C18.2302 7.04016 17.7935 6.75567 17.3115 6.57426C16.8519 6.39593 16.3269 6.27384 15.5579 6.2389C14.7875 6.20358 14.5414 6.19513 12.5795 6.19513C10.6176 6.19513 10.3715 6.20358 9.60117 6.23871C8.83215 6.27384 8.30713 6.39593 7.84756 6.57445C7.36554 6.75586 6.92882 7.04016 6.56811 7.40777C6.2005 7.76848 5.91601 8.2052 5.7346 8.68722C5.55607 9.14679 5.43398 9.67181 5.39904 10.4408C5.36372 11.2112 5.35547 11.4573 5.35547 13.4192C5.35547 15.3811 5.36372 15.6272 5.39924 16.3977C5.43417 17.1665 5.55646 17.6917 5.73498 18.1511C5.91639 18.6331 6.20069 19.0699 6.56811 19.4306C6.92901 19.7982 7.36554 20.0825 7.84776 20.2639C8.30713 20.4424 8.83235 20.5645 9.60117 20.5996C10.3717 20.6348 10.6176 20.6432 12.5797 20.6432C14.5416 20.6432 14.7877 20.6348 15.558 20.5996C16.3269 20.5645 16.8521 20.4424 17.3115 20.2639C18.2818 19.8886 19.0489 19.1215 19.4242 18.1511Z" fill="#180048"/>
</g>
</svg>
