<svg width="56" height="56" viewBox="0 0 56 56" fill="none" xmlns="http://www.w3.org/2000/svg">
<path d="M18.48 40.88C25.5934 40.88 31.36 35.1134 31.36 28C31.36 20.8866 25.5934 15.12 18.48 15.12C11.3666 15.12 5.60001 20.8866 5.60001 28C5.60001 35.1134 11.3666 40.88 18.48 40.88Z" fill="#FFDD7F"/>
<path d="M37.52 40.88C44.6334 40.88 50.4 35.1134 50.4 28C50.4 20.8866 44.6334 15.12 37.52 15.12C30.4066 15.12 24.64 20.8866 24.64 28C24.64 35.1134 30.4066 40.88 37.52 40.88Z" fill="#FEEEC1"/>
<path fill-rule="evenodd" clip-rule="evenodd" d="M28 36.9512C30.0872 34.6621 31.36 31.6175 31.36 28.2756C31.36 24.9337 30.0872 21.889 28 19.6C25.9128 21.889 24.64 24.9337 24.64 28.2756C24.64 31.6175 25.9128 34.6621 28 36.9512Z" fill="#FFBE0C"/>
<path d="M19.1067 31.92H18.0895V25.177L16.0497 25.9262V25.0075L18.9481 23.9192H19.1067V31.92ZM27.288 31.92H22.0708V31.1927L24.8271 28.1301C25.2354 27.6671 25.5162 27.2916 25.6693 27.0036C25.826 26.7119 25.9044 26.4111 25.9044 26.1012C25.9044 25.6856 25.7786 25.3447 25.5271 25.0786C25.2755 24.8124 24.9401 24.6793 24.5208 24.6793C24.0177 24.6793 23.6258 24.8234 23.345 25.1114C23.0679 25.3958 22.9294 25.7931 22.9294 26.3036H21.9177C21.9177 25.5708 22.1528 24.9783 22.6231 24.5262C23.0971 24.0742 23.7296 23.8481 24.5208 23.8481C25.2609 23.8481 25.846 24.0431 26.2763 24.4333C26.7065 24.8197 26.9216 25.3356 26.9216 25.9809C26.9216 26.7648 26.4221 27.6981 25.4231 28.7809L23.2903 31.0942H27.288V31.92ZM33.3528 28.5239C33.3528 29.7088 33.1505 30.5893 32.7458 31.1653C32.3412 31.7413 31.7086 32.0293 30.8481 32.0293C29.9987 32.0293 29.3698 31.7486 28.9614 31.1872C28.5531 30.6221 28.3416 29.7799 28.3271 28.6606V27.3098C28.3271 26.1395 28.5294 25.27 28.9341 24.7012C29.3388 24.1325 29.9731 23.8481 30.8372 23.8481C31.694 23.8481 32.3247 24.1234 32.7294 24.6739C33.1341 25.2208 33.3419 26.0666 33.3528 27.2114V28.5239ZM32.3412 27.1403C32.3412 26.2835 32.2208 25.6601 31.9802 25.27C31.7395 24.8762 31.3586 24.6793 30.8372 24.6793C30.3195 24.6793 29.9422 24.8744 29.7052 25.2645C29.4682 25.6546 29.346 26.2543 29.3388 27.0637V28.6825C29.3388 29.5429 29.4628 30.1791 29.7107 30.5911C29.9622 30.9994 30.3414 31.2036 30.8481 31.2036C31.3477 31.2036 31.7177 31.0104 31.9583 30.6239C32.2026 30.2374 32.3302 29.6286 32.3412 28.7973V27.1403ZM37.6513 27.6489H39.8716V28.6059H37.6513V31.1215H36.6341V28.6059H34.4138V27.6489H36.6341V25.3247H37.6513V27.6489Z" fill="white"/>
</svg>
