<svg width="37" height="36" viewBox="0 0 37 36" fill="none" xmlns="http://www.w3.org/2000/svg">
<path d="M26.8304 5.04004H2.70012C2.10365 5.04004 1.62012 5.52357 1.62012 6.12004V22.2172C1.62012 22.8137 2.10365 23.2972 2.70012 23.2972H26.8304C27.4269 23.2972 27.9104 22.8137 27.9104 22.2172V6.12004C27.9104 5.52357 27.4269 5.04004 26.8304 5.04004Z" fill="#FF85BF"/>
<path d="M26.4497 30.6C30.8862 30.6 34.4828 27.0034 34.4828 22.5668C34.4828 18.1303 30.8862 14.5337 26.4497 14.5337C22.0131 14.5337 18.4165 18.1303 18.4165 22.5668C18.4165 27.0034 22.0131 30.6 26.4497 30.6Z" fill="#A065FE"/>
<path fill-rule="evenodd" clip-rule="evenodd" d="M27.9102 14.6661V22.2171C27.9102 22.8136 27.4267 23.2971 26.8302 23.2971H18.4493C18.4276 23.0566 18.4165 22.813 18.4165 22.5668C18.4165 18.1302 22.0131 14.5337 26.4497 14.5337C26.9484 14.5337 27.4366 14.5792 27.9102 14.6661Z" fill="#7D47E5"/>
<path d="M9.65301 13.8033C10.863 13.8033 11.8439 12.8225 11.8439 11.6125C11.8439 10.4025 10.863 9.42163 9.65301 9.42163C8.44304 9.42163 7.46216 10.4025 7.46216 11.6125C7.46216 12.8225 8.44304 13.8033 9.65301 13.8033Z" fill="#FFE1F0"/>
<path fill-rule="evenodd" clip-rule="evenodd" d="M13.9137 18.1851C13.5661 16.1128 11.7637 14.5337 9.5926 14.5337C7.42148 14.5337 5.61914 16.1128 5.27148 18.1851H13.9137Z" fill="#FFE1F0"/>
<path d="M22.7983 10.8823H15.4954C15.0921 10.8823 14.7651 11.2093 14.7651 11.6126C14.7651 12.0159 15.0921 12.3429 15.4954 12.3429H22.7983C23.2016 12.3429 23.5286 12.0159 23.5286 11.6126C23.5286 11.2093 23.2016 10.8823 22.7983 10.8823Z" fill="#FFE1F0"/>
<path d="M19.1469 13.8035H15.4954C15.0921 13.8035 14.7651 14.1304 14.7651 14.5338C14.7651 14.9371 15.0921 15.264 15.4954 15.264H19.1469C19.5502 15.264 19.8771 14.9371 19.8771 14.5338C19.8771 14.1304 19.5502 13.8035 19.1469 13.8035Z" fill="#FFE1F0"/>
<path d="M28.9002 19.5174C28.8666 19.5174 28.833 19.509 28.8036 19.4922C27.9972 19.0764 27.3 18.9 26.4642 18.9C25.6326 18.9 24.843 19.0974 24.1248 19.4922C24.024 19.5468 23.898 19.509 23.8392 19.4082C23.7846 19.3074 23.8224 19.1772 23.9232 19.1226C24.7044 18.6984 25.5612 18.48 26.4642 18.48C27.3588 18.48 28.14 18.6774 28.9968 19.1184C29.1018 19.173 29.1396 19.299 29.085 19.3998C29.0472 19.4754 28.9758 19.5174 28.9002 19.5174ZM22.89 21.7224C22.848 21.7224 22.806 21.7098 22.7682 21.6846C22.6716 21.6174 22.6506 21.4872 22.7178 21.3906C23.1336 20.8026 23.6628 20.3406 24.2928 20.0172C25.6116 19.3368 27.3 19.3326 28.623 20.013C29.253 20.3364 29.7822 20.7942 30.198 21.378C30.2652 21.4704 30.2442 21.6048 30.1476 21.672C30.051 21.7392 29.9208 21.7182 29.8536 21.6216C29.4756 21.0924 28.9968 20.6766 28.4298 20.3868C27.2244 19.7694 25.683 19.7694 24.4818 20.391C23.9106 20.685 23.4318 21.105 23.0538 21.6342C23.0202 21.693 22.9572 21.7224 22.89 21.7224ZM25.515 26.7918C25.4604 26.7918 25.4058 26.7708 25.368 26.7288C25.0026 26.3634 24.8052 26.1282 24.5238 25.62C24.234 25.1034 24.0828 24.4734 24.0828 23.7972C24.0828 22.5498 25.1496 21.5334 26.46 21.5334C27.7704 21.5334 28.8372 22.5498 28.8372 23.7972C28.8372 23.9148 28.7448 24.0072 28.6272 24.0072C28.5096 24.0072 28.4172 23.9148 28.4172 23.7972C28.4172 22.7808 27.5394 21.9534 26.46 21.9534C25.3806 21.9534 24.5028 22.7808 24.5028 23.7972C24.5028 24.402 24.6372 24.9606 24.8934 25.4142C25.1622 25.8972 25.347 26.103 25.6704 26.4306C25.7502 26.5146 25.7502 26.6448 25.6704 26.7288C25.6242 26.7708 25.5696 26.7918 25.515 26.7918ZM28.5264 26.0148C28.0266 26.0148 27.5856 25.8888 27.2244 25.641C26.5986 25.2168 26.2248 24.528 26.2248 23.7972C26.2248 23.6796 26.3172 23.5872 26.4348 23.5872C26.5524 23.5872 26.6448 23.6796 26.6448 23.7972C26.6448 24.3894 26.9472 24.948 27.4596 25.2924C27.7578 25.494 28.1064 25.5906 28.5264 25.5906C28.6272 25.5906 28.7952 25.578 28.9632 25.5486C29.0766 25.5276 29.1858 25.6032 29.2068 25.7208C29.2278 25.8342 29.1522 25.9434 29.0346 25.9644C28.7952 26.0106 28.5852 26.0148 28.5264 26.0148ZM27.6822 26.88C27.6654 26.88 27.6444 26.8758 27.6276 26.8716C26.9598 26.6868 26.523 26.439 26.0652 25.9896C25.4772 25.4058 25.1538 24.6288 25.1538 23.7972C25.1538 23.1168 25.7334 22.5624 26.4474 22.5624C27.1614 22.5624 27.741 23.1168 27.741 23.7972C27.741 24.2466 28.1316 24.612 28.6146 24.612C29.0976 24.612 29.4882 24.2466 29.4882 23.7972C29.4882 22.2138 28.1232 20.9286 26.4432 20.9286C25.2504 20.9286 24.1584 21.5922 23.667 22.6212C23.5032 22.9614 23.4192 23.3604 23.4192 23.7972C23.4192 24.1248 23.4486 24.6414 23.7006 25.3134C23.7426 25.4226 23.688 25.5444 23.5788 25.5822C23.4696 25.6242 23.3478 25.5654 23.31 25.4604C23.1042 24.9102 23.0034 24.3642 23.0034 23.7972C23.0034 23.2932 23.1 22.8354 23.289 22.4364C23.8476 21.2646 25.0866 20.5044 26.4432 20.5044C28.3542 20.5044 29.9082 21.9786 29.9082 23.793C29.9082 24.4734 29.3286 25.0278 28.6146 25.0278C27.9006 25.0278 27.321 24.4734 27.321 23.793C27.321 23.3436 26.9304 22.9782 26.4474 22.9782C25.9644 22.9782 25.5738 23.3436 25.5738 23.793C25.5738 24.5112 25.851 25.1832 26.3592 25.6872C26.7582 26.082 27.1404 26.3004 27.7326 26.4642C27.846 26.4936 27.909 26.6112 27.8796 26.7204C27.8586 26.817 27.7704 26.88 27.6822 26.88Z" fill="white"/>
</svg>
