<svg width="197" height="219" viewBox="0 0 197 219" fill="none" xmlns="http://www.w3.org/2000/svg">
<path d="M171.797 33.604H158.618V185.186H40.4286V197.63C40.4286 209.286 51.7697 218.632 65.7361 218.632H196.999V54.6584C197.104 43.0023 185.763 33.604 171.797 33.604Z" fill="#5AD6A0"/>
<path d="M158.618 33.6034V21.0021C158.618 9.34592 147.277 0 133.31 0H0V168.332C0 179.988 11.3408 185.238 25.3072 185.238H40.4287V33.6034H158.618Z" fill="#A065FE"/>
<path d="M158.618 33.604H40.4286V185.186H158.618V33.604Z" fill="#7D47E5"/>
<path d="M98.5518 160.876C97.803 160.865 97.0876 160.564 96.5566 160.036L77.2873 139.506C76.7805 138.987 76.497 138.289 76.497 137.564C76.497 136.838 76.7805 136.141 77.2873 135.621C77.5375 135.357 77.8387 135.147 78.1727 135.004C78.5067 134.86 78.8664 134.786 79.2299 134.786C79.5935 134.786 79.9532 134.86 80.2872 135.004C80.6212 135.147 80.9224 135.357 81.1726 135.621L98.3945 153.945L132.628 117.559C133.129 117.03 133.82 116.722 134.549 116.702C135.277 116.682 135.984 116.953 136.513 117.454C137.042 117.955 137.351 118.646 137.37 119.375C137.39 120.104 137.119 120.81 136.618 121.339L100.39 159.878C99.9232 160.429 99.2675 160.785 98.5518 160.876V160.876Z" fill="white"/>
</svg>
