<svg xmlns="http://www.w3.org/2000/svg" width="55px" height="60px" viewBox="0 0 55 60"><path fill="#5AD6A0" d="M32.314 25.843a1.572 1.572 0 01-1.65-1.492V11.355L22.93 8.481a2.771 2.771 0 00-1.933 0L1.79 15.648A2.797 2.797 0 000 18.226v18.122a1.586 1.586 0 000 .258c.31 1.534 3.557 15.583 20.907 23.2a2.732 2.732 0 002.113 0c18.046-7.488 20.7-21.821 20.92-23.2a1.03 1.03 0 000-.206V25.843H32.314z"></path><path fill="#FFDD7F" d="M53.233 9.306h-5.156V5.697a5.71 5.71 0 00-11.407 0v3.61h-4.356a1.585 1.585 0 00-1.65 1.518v.531l5.426 2.036.696.258a5.697 5.697 0 005.62 4.872 5.547 5.547 0 001.547-.245v7.566h9.28a1.572 1.572 0 001.65-1.492V10.827a1.585 1.585 0 00-1.647-1.52h-.003zM39.338 5.697a3.093 3.093 0 016.187 0v3.61h-6.187v-3.61zm.812 9.203l2.037.748c.146.074.288.155.425.245h-.18a3.093 3.093 0 01-2.282-.993z"></path><path fill="#5AD6A0" d="M43.979 18.238a2.771 2.771 0 00-1.792-2.577l-6.097-2.269-5.426-2.037v12.98a1.573 1.573 0 001.634 1.509h11.616v-7.606h.065z"></path><path fill="#06C16E" d="M43.979 18.238a2.771 2.771 0 00-1.792-2.577l-6.097-2.269-5.426-2.037v12.98a1.573 1.573 0 001.634 1.509h11.616v-7.606h.065z"></path><path fill="#C2EFDA" d="M21.628 38.668a.67.67 0 01-.477-.206l-4.51-4.808a.644.644 0 01-.005-.911l.004-.004a.644.644 0 01.915 0l4.047 4.305 8.043-8.533a.647.647 0 11.941.89l-8.494 9.022a.644.644 0 01-.464.245z"></path></svg>