<svg width="64" height="64" viewBox="0 0 64 64" fill="none" xmlns="http://www.w3.org/2000/svg">
<path d="M42.2401 40.9599C42.2401 43.0079 40.5334 43.5199 39.6801 43.5199H15.36C13.312 43.5199 12.8 41.8132 12.8 40.9599V12.7999H37.1201V26.5599H42.2401V40.9599Z" fill="#5AD6A0"/>
<g style="mix-blend-mode:multiply">
<g style="mix-blend-mode:multiply">
<path d="M17.92 26.5599H37.12V12.7999H12.8V40.9599C12.8 41.8132 13.312 43.5199 15.36 43.5199C17.408 43.5199 17.92 41.8132 17.92 40.9599V26.5599Z" fill="#5AD6A0"/>
</g>
</g>
<path d="M40.9598 51.2C46.6152 51.2 51.1998 46.6154 51.1998 40.96C51.1998 35.3046 46.6152 30.72 40.9598 30.72C35.3045 30.72 30.7198 35.3046 30.7198 40.96C30.7198 46.6154 35.3045 51.2 40.9598 51.2Z" fill="#BDEFD9"/>
<path fill-rule="evenodd" clip-rule="evenodd" d="M39.6798 43.52C40.5332 43.52 42.2398 43.008 42.2398 40.96V30.7992C41.8205 30.7469 41.3933 30.72 40.9598 30.72C35.3044 30.72 30.7198 35.3045 30.7198 40.96C30.7198 41.8439 30.8318 42.7017 31.0425 43.52H39.6798Z" fill="#06C16E"/>
<path d="M36.4801 41.28L39.6801 44.8L46.0801 37.76" stroke="white" stroke-width="2"/>
</svg>
