<svg width="46" height="52" viewBox="0 0 46 52" fill="none" xmlns="http://www.w3.org/2000/svg">
<path d="M31.6813 12H0.713623V48.129H31.6813V12Z" fill="#FFDD7F"/>
<path d="M5.1011 42.9677H31.6813V52H5.1011C3.93747 52 2.82149 51.5242 1.99868 50.6772C1.17587 49.8303 0.713623 48.6816 0.713623 47.4838C0.713623 46.2861 1.17587 45.1374 1.99868 44.2905C2.82149 43.4435 3.93747 42.9677 5.1011 42.9677Z" fill="#FFBE0C"/>
<path fill-rule="evenodd" clip-rule="evenodd" d="M25.3337 25.3333C32.3293 25.3333 38.0003 19.6623 38.0003 12.6667C38.0003 5.67106 32.3293 0 25.3337 0C18.338 0 12.667 5.67106 12.667 12.6667C12.667 19.6623 18.338 25.3333 25.3337 25.3333ZM25.3336 22C30.4883 22 34.6669 17.8213 34.6669 12.6667C34.6669 7.51202 30.4883 3.33335 25.3336 3.33335C20.179 3.33335 16.0003 7.51202 16.0003 12.6667C16.0003 17.8213 20.179 22 25.3336 22Z" fill="#A065FE"/>
<path fill-rule="evenodd" clip-rule="evenodd" d="M31.6812 23.6304C29.8149 24.7133 27.6467 25.3333 25.3337 25.3333C18.338 25.3333 12.667 19.6622 12.667 12.6666C12.667 12.443 12.6728 12.2207 12.6842 12H31.6812V23.6304Z" fill="#7D47E5"/>
<rect x="30.6672" y="21.2998" width="4.66666" height="16" rx="2.33333" transform="rotate(-45 30.6672 21.2998)" fill="#A065FE"/>
<circle cx="25.3336" cy="12.6667" r="9.33333" fill="#E3D2FF"/>
<path fill-rule="evenodd" clip-rule="evenodd" d="M31.6813 19.509C30.0158 21.0548 27.7851 22 25.3336 22C20.1789 22 16.0002 17.8213 16.0002 12.6666C16.0002 12.4425 16.0081 12.2202 16.0237 12H31.6813V19.509Z" fill="#A065FE"/>
</svg>
