<svg width="49" height="42" viewBox="0 0 49 42" fill="none" xmlns="http://www.w3.org/2000/svg">
<g clip-path="url(#clip0)">
<path d="M26.24 15.08V7.55002H3.38002C3.0036 7.55002 2.63088 7.62432 2.28323 7.76868C1.93559 7.91303 1.61986 8.12459 1.35415 8.39122C1.08845 8.65786 0.877989 8.97433 0.734849 9.32247C0.59171 9.67062 0.518706 10.0436 0.520022 10.42V31.87C0.520022 31.94 0.520022 32.01 0.520022 32.09V40.17C0.523675 40.354 0.57804 40.5335 0.677129 40.6886C0.776218 40.8437 0.916187 40.9684 1.08162 41.049C1.24706 41.1297 1.43154 41.1631 1.61476 41.1456C1.79797 41.1282 1.97281 41.0605 2.12002 40.95L10.12 34.73H34.62C34.999 34.7353 35.3752 34.6653 35.7268 34.5239C36.0784 34.3825 36.3984 34.1727 36.6683 33.9066C36.9381 33.6405 37.1523 33.3234 37.2986 32.9738C37.4448 32.6242 37.5201 32.249 37.52 31.87V16.65H27.82C27.613 16.6513 27.4078 16.6117 27.2161 16.5334C27.0245 16.4551 26.8502 16.3396 26.7034 16.1937C26.5565 16.0478 26.44 15.8743 26.3605 15.6832C26.281 15.492 26.24 15.287 26.24 15.08Z" fill="#FFDD7F"/>
<path d="M47.33 1.20133e-05H27.81C27.3936 1.20133e-05 26.9943 0.165422 26.6999 0.459854C26.4054 0.754286 26.24 1.15362 26.24 1.57001V7.57001H34.65C35.0256 7.5687 35.3978 7.64137 35.7453 7.78389C36.0928 7.9264 36.4088 8.13596 36.6753 8.40061C36.9418 8.66526 37.1536 8.97981 37.2985 9.3263C37.4434 9.67279 37.5187 10.0444 37.52 10.42V16.65H41.94L47.87 21.25C47.9598 21.3247 48.0692 21.3721 48.1852 21.3864C48.3011 21.4008 48.4188 21.3815 48.5241 21.331C48.6294 21.2804 48.718 21.2007 48.7793 21.1012C48.8407 21.0018 48.8721 20.8868 48.87 20.77V15.48C48.9101 15.3505 48.9304 15.2156 48.93 15.08V1.57001C48.9301 1.36129 48.8885 1.15465 48.8077 0.962188C48.7269 0.769725 48.6086 0.595299 48.4596 0.449112C48.3106 0.302925 48.134 0.187912 47.9401 0.110799C47.7461 0.033687 47.5387 -0.00397635 47.33 1.20133e-05Z" fill="#A065FE"/>
<path d="M34.65 7.55001H26.24V15.08C26.24 15.4964 26.4054 15.8957 26.6999 16.1902C26.9943 16.4846 27.3936 16.65 27.81 16.65H37.52V10.42C37.5213 10.0427 37.448 9.66894 37.3042 9.32014C37.1605 8.97134 36.9491 8.65443 36.6824 8.38766C36.4156 8.12089 36.0987 7.90954 35.7499 7.76578C35.4011 7.62202 35.0273 7.54868 34.65 7.55001Z" fill="#7D47E5"/>
<path d="M16.25 24.07H13.65C12.7669 24.07 11.9199 23.7192 11.2954 23.0947C10.6709 22.4702 10.32 21.6232 10.32 20.74C10.32 19.8568 10.6709 19.0098 11.2954 18.3853C11.9199 17.7608 12.7669 17.41 13.65 17.41H17.11C17.9924 17.4126 18.8378 17.7643 19.4618 18.3883C20.0857 19.0122 20.4374 19.8576 20.44 20.74C20.4375 20.8665 20.3861 20.9871 20.2966 21.0766C20.2071 21.1661 20.0865 21.2174 19.96 21.22C19.8327 21.22 19.7106 21.1694 19.6206 21.0794C19.5306 20.9894 19.48 20.8673 19.48 20.74C19.48 20.1114 19.2303 19.5086 18.7859 19.0642C18.3414 18.6197 17.7386 18.37 17.11 18.37H13.65C13.0215 18.37 12.4186 18.6197 11.9742 19.0642C11.5297 19.5086 11.28 20.1114 11.28 20.74C11.28 21.3686 11.5297 21.9714 11.9742 22.4158C12.4186 22.8603 13.0215 23.11 13.65 23.11H16.25C16.3773 23.11 16.4994 23.1606 16.5894 23.2506C16.6795 23.3406 16.73 23.4627 16.73 23.59C16.7275 23.7165 16.6761 23.8371 16.5866 23.9266C16.4971 24.0161 16.3765 24.0674 16.25 24.07Z" fill="#FFBE0C"/>
<path d="M24.76 26H21.3C20.4177 25.9974 19.5722 25.6457 18.9483 25.0218C18.3243 24.3978 17.9727 23.5524 17.97 22.67C17.97 22.5427 18.0206 22.4206 18.1106 22.3306C18.2006 22.2406 18.3227 22.19 18.45 22.19C18.5134 22.1886 18.5765 22.2001 18.6353 22.2238C18.6942 22.2474 18.7476 22.2827 18.7925 22.3276C18.8373 22.3724 18.8726 22.4259 18.8963 22.4847C18.9199 22.5436 18.9314 22.6066 18.93 22.67C18.9327 23.2978 19.1832 23.8991 19.6271 24.3429C20.071 24.7868 20.6723 25.0374 21.3 25.04H24.76C25.3886 25.04 25.9914 24.7903 26.4359 24.3459C26.8803 23.9014 27.13 23.2986 27.13 22.67C27.13 22.0415 26.8803 21.4386 26.4359 20.9942C25.9914 20.5497 25.3886 20.3 24.76 20.3H22.23C22.1027 20.3 21.9806 20.2494 21.8906 20.1594C21.8006 20.0694 21.75 19.9473 21.75 19.82C21.7487 19.7566 21.7601 19.6936 21.7838 19.6347C21.8074 19.5759 21.8427 19.5224 21.8876 19.4776C21.9324 19.4327 21.9859 19.3974 22.0447 19.3738C22.1036 19.3501 22.1666 19.3386 22.23 19.34H24.76C25.6432 19.34 26.4902 19.6909 27.1147 20.3153C27.7392 20.9398 28.09 21.7868 28.09 22.67C28.09 23.5532 27.7392 24.4002 27.1147 25.0247C26.4902 25.6492 25.6432 26 24.76 26Z" fill="#FFBE0C"/>
</g>
<defs>
<clipPath id="clip0">
<rect width="48.38" height="41.16" fill="white" transform="translate(0.52002)"/>
</clipPath>
</defs>
</svg>
