<svg width="42" height="40" viewBox="0 0 42 40" fill="none" xmlns="http://www.w3.org/2000/svg">
<path d="M0.308333 0L0 39.5333H0.333334C8.15833 39.5333 15.25 37.3917 20.425 33.9C15.2333 30.2833 12.0417 25.3167 12.0917 19.8583C12.1417 14.4 15.425 9.48333 20.65 5.95C15.4583 2.33333 8.275 0.0583333 0.316667 0" fill="#FEEEC1"/>
<path d="M28.9833 19.9917C28.9833 25.45 25.65 30.3667 20.425 33.9C25.6167 37.5167 32.8 39.7917 40.7583 39.85L41.0666 0.31667C33.1083 0.258337 25.8833 2.425 20.6417 5.95C25.8333 9.56667 29.025 14.5333 28.9833 19.9917Z" fill="#FFDD7F"/>
<path d="M28.9833 19.9917C28.9833 14.5333 25.8333 9.56666 20.65 5.95C15.4083 9.48333 12.1333 14.4 12.0917 19.8583C12.05 25.3167 15.2416 30.2833 20.425 33.9C25.675 30.3667 28.9416 25.45 28.9833 19.9917Z" fill="#FFBE0C"/>
</svg>
