<svg width="44" height="43" viewBox="0 0 44 43" fill="none" xmlns="http://www.w3.org/2000/svg">
<path d="M13.7314 17.673C13.7232 11.7866 18.4885 7.00813 24.375 7C27.1915 6.99728 29.895 8.10913 31.8941 10.0932C36.0719 14.24 36.0972 20.9884 31.9504 25.1663C34.6829 26.3352 37.1115 28.114 39.0504 30.3663C42.0865 33.8746 43.7548 38.3605 43.75 43H32.5583C32.5583 43 32.5583 43.0001 32.5583 43L5 43C5.00183 35.22 9.65912 28.1963 16.825 25.1666C14.847 23.1738 13.7353 20.4809 13.7314 17.673Z" fill="#FFDD7F"/>
<path d="M24 0H0V28H24V0Z" fill="#FEEEC1"/>
<path d="M3.40029 24H24V31H3.40029C2.49848 31 1.6336 30.6313 0.995922 29.9749C0.358242 29.3185 0 28.4283 0 27.5C0 26.5717 0.358242 25.6815 0.995922 25.0251C1.6336 24.3687 2.49848 24 3.40029 24Z" fill="#FFBE0E"/>
<path d="M14 6H10V13H14V6Z" fill="#FFBE0E"/>
<path d="M12 19C13.1046 19 14 18.1046 14 17C14 15.8954 13.1046 15 12 15C10.8954 15 10 15.8954 10 17C10 18.1046 10.8954 19 12 19Z" fill="#FFBE0E"/>
</svg>
