<svg width="56" height="56" viewBox="0 0 56 56" fill="none" xmlns="http://www.w3.org/2000/svg">
<path d="M37.52 21.6161H14C12.4536 21.6161 11.2 22.8697 11.2 24.4161V41.7761C11.2 43.3225 12.4536 44.5761 14 44.5761H37.52C39.0664 44.5761 40.32 43.3225 40.32 41.7761V24.4161C40.32 22.8697 39.0664 21.6161 37.52 21.6161Z" fill="#5AD6A0"/>
<path d="M42.7063 13.2936C41.55 12.1373 39.6754 12.1373 38.5191 13.2936L27.2899 24.5229V28.71H31.477L42.7063 17.4807C43.8626 16.3245 43.8626 14.4499 42.7063 13.2936Z" fill="#BDEFD9"/>
<path fill-rule="evenodd" clip-rule="evenodd" d="M38.5449 21.6421C38.2138 21.5043 37.8504 21.4282 37.4694 21.4282H30.3846L27.2899 24.5228V28.71H31.477L38.5449 21.6421Z" fill="#06C16E"/>
<path d="M16.24 32.256H35.28" stroke="#BDEFD9"/>
<path d="M16.24 35.6161H35.28" stroke="#BDEFD9"/>
<path d="M16.24 38.4161H35.28" stroke="#BDEFD9"/>
</svg>
