<svg width="57" height="36" viewBox="0 0 57 36" fill="none" xmlns="http://www.w3.org/2000/svg">
<path fill-rule="evenodd" clip-rule="evenodd" d="M8.73138 10.6734C8.72321 4.78698 13.4885 0.00849595 19.375 0.000371208C22.1915 -0.00235379 24.895 1.1095 26.8941 3.09361C31.0719 7.24036 31.0972 13.9888 26.9504 18.1667C29.6829 19.3356 32.1115 21.1143 34.0504 23.3667C33.9867 23.4122 33.9234 23.4582 33.8605 23.5046C33.9233 23.4583 33.9864 23.4125 34.05 23.3671C37.086 26.8753 38.7548 31.3609 38.75 36.0004H27.5583C27.5583 36.0004 27.5583 36.0003 27.5583 36.0003H0C0.00183333 28.2203 4.65912 21.1966 11.825 18.167C9.84697 16.1741 8.73526 13.4812 8.73138 10.6734Z" fill="#FF85BF"/>
<path fill-rule="evenodd" clip-rule="evenodd" d="M8.73138 10.6734C8.72321 4.78698 13.4885 0.00849595 19.375 0.000371208C22.1915 -0.00235379 24.895 1.1095 26.8941 3.09361C31.0719 7.24036 31.0972 13.9888 26.9504 18.1667C29.6829 19.3356 32.1115 21.1143 34.0504 23.3667C33.9867 23.4122 33.9234 23.4582 33.8605 23.5046C33.9233 23.4583 33.9864 23.4125 34.05 23.3671C37.086 26.8753 38.7548 31.3609 38.75 36.0004H27.5583C27.5583 36.0004 27.5583 36.0003 27.5583 36.0003H0C0.00183333 28.2203 4.65912 21.1966 11.825 18.167C9.84697 16.1741 8.73526 13.4812 8.73138 10.6734Z" fill="#FF85BF"/>
<path d="M56.1988 7H19V30.9454H56.1988V7Z" fill="#5AD6A0"/>
<path d="M56.1988 7H19V30.9454H56.1988V7Z" fill="#FFE1F0"/>
<path d="M39.0101 13.4968H35.8917V21.293H39.0101V13.4968Z" fill="#FF85BF"/>
<path d="M37.4509 25.7481C38.312 25.7481 39.0101 25.05 39.0101 24.1889C39.0101 23.3277 38.312 22.6296 37.4509 22.6296C36.5897 22.6296 35.8917 23.3277 35.8917 24.1889C35.8917 25.05 36.5897 25.7481 37.4509 25.7481Z" fill="#FF85BF"/>
<path fill-rule="evenodd" clip-rule="evenodd" d="M29.3992 7C30.7699 10.7596 29.9561 15.1384 26.9504 18.1667C29.6829 19.3356 32.1115 21.1143 34.0504 23.3667C35.9609 25.5742 37.3297 28.1689 38.0809 30.9454H19V7H29.3992Z" fill="#E768A2"/>
</svg>
