<svg width="64" height="64" viewBox="0 0 64 64" fill="none" xmlns="http://www.w3.org/2000/svg">
<path d="M18.5883 40.2792C18.7625 39.7565 19.2516 39.4039 19.8026 39.4039H43.6134C44.1368 39.4039 44.6075 39.7226 44.8019 40.2086L47.6179 47.2486C47.9542 48.0894 47.335 49.0039 46.4294 49.0039H17.4559C16.5822 49.0039 15.9653 48.148 16.2416 47.3192L18.5883 40.2792Z" fill="#BDEFD9"/>
<path d="M16 47.7239V35.2439L32 31.0839L47.68 35.2439V47.0839L46.4 49.0039H18.24L16 47.7239Z" fill="#FF85BF"/>
<path d="M18.5883 27.4791C18.7625 26.9565 19.2516 26.6039 19.8026 26.6039H43.6134C44.1368 26.6039 44.6075 26.9225 44.8019 27.4085L47.6179 34.4485C47.9542 35.2893 47.335 36.2039 46.4294 36.2039H17.4559C16.5822 36.2039 15.9653 35.3479 16.2416 34.5191L18.5883 27.4791Z" fill="#FFE1F0"/>
<path fill-rule="evenodd" clip-rule="evenodd" d="M23.0472 23.9493H23.0212V23.3191C23.0209 21.2823 23.7803 19.3161 25.1556 17.7929C26.5308 16.2698 28.4263 15.2955 30.4831 15.0546C32.5399 14.8136 34.6152 15.3228 36.3158 16.4856C38.0164 17.6484 39.2243 19.3842 39.7107 21.3641C40.1971 23.3439 39.9281 25.4304 38.9549 27.2284C37.9816 29.0264 36.3716 30.411 34.4297 31.1198C32.4879 31.8288 30.3491 31.8128 28.4184 31.0749C26.4877 30.3371 24.8993 28.9285 23.954 27.1162C23.4415 26.1301 23.1332 25.0536 23.0472 23.9493Z" fill="#FF85BF"/>
<path fill-rule="evenodd" clip-rule="evenodd" d="M39.1512 26.8424C39.0894 26.9724 39.024 27.1012 38.9551 27.2284C37.9819 29.0264 36.3718 30.411 34.43 31.1198C32.4881 31.8288 30.3493 31.8128 28.4187 31.0749C26.488 30.3371 24.8996 28.9285 23.9542 27.1163C23.9072 27.0257 23.8619 26.9344 23.8182 26.8424H39.1512Z" fill="#E768A2"/>
<path d="M32.0368 26.5157C31.9917 26.516 31.9472 26.5054 31.9072 26.4848C31.8673 26.4643 31.833 26.4345 31.8075 26.3979L29.9575 23.7947C29.9244 23.7336 29.9154 23.6627 29.932 23.5955C29.9487 23.5282 29.9899 23.4693 30.0479 23.4301C30.1058 23.3908 30.1765 23.3739 30.2463 23.3826C30.3161 23.3912 30.3802 23.4248 30.4265 23.477C30.5722 23.7029 30.7893 23.8754 31.0446 23.968C31.2997 24.0606 31.5788 24.0681 31.8387 23.9894C32.0281 23.9442 32.1975 23.8399 32.3216 23.6921C32.4455 23.5443 32.5175 23.3609 32.5267 23.1695C32.5267 22.0729 32.5267 20.7406 32.5267 20.7252C32.5266 20.6513 32.5561 20.5804 32.6087 20.5277C32.6614 20.475 32.7329 20.4447 32.8081 20.4434C32.8818 20.4434 32.9526 20.4718 33.0052 20.5226C33.0579 20.5733 33.0881 20.6425 33.0895 20.7149C33.0895 20.7149 33.0895 22.0729 33.0895 23.1746C33.0784 23.4836 32.9673 23.7809 32.7723 24.0233C32.5774 24.2658 32.3087 24.4406 32.0055 24.5223C31.7496 24.6018 31.4783 24.6212 31.2134 24.5787L32.2556 26.0648C32.2977 26.1253 32.3137 26.1998 32.3001 26.2718C32.2864 26.3438 32.2442 26.4076 32.1827 26.4491C32.1424 26.4859 32.0913 26.5092 32.0368 26.5157Z" fill="#FFE1F0"/>
<path d="M33.934 20.9404H30.1923C30.1171 20.939 30.0456 20.9087 29.993 20.8561C29.9404 20.8033 29.9109 20.7324 29.9109 20.6586C29.9109 20.5852 29.9405 20.5148 29.9933 20.4629C30.0461 20.411 30.1176 20.3818 30.1923 20.3818H33.934C34.0086 20.3818 34.0801 20.411 34.1329 20.4629C34.1857 20.5148 34.2154 20.5852 34.2154 20.6586C34.2154 20.7324 34.1859 20.8033 34.1333 20.8561C34.0807 20.9087 34.009 20.9391 33.934 20.9404Z" fill="#FFE1F0"/>
<path d="M33.934 22.5751H30.1923C30.1176 22.5751 30.0461 22.546 29.9933 22.4941C29.9405 22.4422 29.9109 22.3718 29.9109 22.2985C29.9109 22.2251 29.9405 22.1547 29.9933 22.1028C30.0461 22.0508 30.1176 22.0217 30.1923 22.0217H33.934C34.0086 22.0217 34.0801 22.0508 34.1329 22.1028C34.1857 22.1547 34.2154 22.2251 34.2154 22.2985C34.2154 22.3718 34.1857 22.4422 34.1329 22.4941C34.0801 22.546 34.0086 22.5751 33.934 22.5751Z" fill="#FFE1F0"/>
</svg>
