<svg width="56" height="56" viewBox="0 0 56 56" fill="none" xmlns="http://www.w3.org/2000/svg">
<path d="M22.4 33.6C28.5856 33.6 33.6 28.5856 33.6 22.4C33.6 16.2144 28.5856 11.2 22.4 11.2C16.2144 11.2 11.2 16.2144 11.2 22.4C11.2 28.5856 16.2144 33.6 22.4 33.6Z" fill="#E3D2FF"/>
<path d="M22.4 25.2C22.4 23.6536 23.6536 22.4 25.2 22.4C26.7464 22.4 28 23.6536 28 25.2V44.8H22.4V25.2Z" fill="#A065FE"/>
<path d="M33.6 33.6H28V44.8H33.6V33.6Z" fill="#A065FE"/>
<path d="M39.2 33.6H33.6V44.8H39.2V33.6Z" fill="#A065FE"/>
<path d="M39.2 33.6C42.2928 33.6 44.8 36.1072 44.8 39.2V44.8H39.2V33.6Z" fill="#A065FE"/>
<path fill-rule="evenodd" clip-rule="evenodd" d="M22.4 33.6V25.2C22.4 23.6536 23.6536 22.4 25.2 22.4C26.7464 22.4 28 23.6536 28 25.2V32.1017C26.3527 33.0546 24.44 33.6 22.4 33.6Z" fill="#7D47E5"/>
</svg>
