<svg width="46" height="46" viewBox="0 0 46 46" fill="none" xmlns="http://www.w3.org/2000/svg">
<path d="M7.14164 29.4L29.4 7.14167L38.8 7.2L38.7583 0.333337L22.4916 0.233337L0.241638 22.4917L15.2916 37.55L7.14164 29.4Z" fill="#A065FE"/>
<path d="M38.8333 7.16666V16.6L17.9083 37.55C17.1859 38.2725 16.0146 38.2727 15.292 37.5503C15.2919 37.5502 15.2917 37.5501 15.2916 37.55L23.5083 45.7666L45.7583 23.5083L45.6666 7.24166L38.8333 7.16666" fill="#E3D2FF"/>
<path d="M16.6 38.8583L38.8583 16.6L38.8 7.2L29.4 7.14166L7.14166 29.4L16.6 38.8583Z" fill="#7D47E5"/>
<path d="M31.9666 10.7417V10.7416C31.9666 12.9461 30.1795 14.7333 27.9749 14.7333C25.7704 14.7333 23.9833 12.9461 23.9833 10.7416C23.9833 8.53707 25.7704 6.74994 27.9749 6.74994C27.9832 6.74994 27.9916 6.74996 27.9999 6.75002C30.1947 6.76372 31.9667 8.54684 31.9666 10.7417L31.9666 10.7417Z" fill="#E3D2FF"/>
</svg>
