<svg width="58" height="36" viewBox="0 0 58 36" fill="none" xmlns="http://www.w3.org/2000/svg">
<path d="M44.9333 19.6666L57.3333 14.275C57.3333 14.275 30.3416 1.09999 29.1 0.433319L0.666656 14.3833L12.1 19.6666L28.5166 12.05L44.9333 19.6666Z" fill="#A065FE"/>
<path d="M41.725 18.1416H15.3L12.1 19.625L9.63333 18.4916V26.8L28.5167 35.5666L47.3916 26.8H47.575V18.4833L44.9333 19.625L41.725 18.1416Z" fill="#E3D2FF"/>
<path d="M15.3 18.1416H9.63333V18.4916L12.1333 19.625L15.3333 18.1416H15.3ZM47.6083 18.1416H41.775L44.9333 19.6666L47.575 18.525V18.1833" fill="#A065FF"/>
<path d="M47.5083 18.4333L28.5167 9.61664L9.52499 18.4333L28.5167 27.25L47.5083 18.4333Z" fill="#7D47E5"/>
</svg>
