<svg width="64" height="64" viewBox="0 0 64 64" fill="none" xmlns="http://www.w3.org/2000/svg">
<path d="M36.7997 20.48H17.5997C16.5394 20.48 15.6797 21.3396 15.6797 22.4V49.28C15.6797 50.3404 16.5394 51.2 17.5997 51.2H36.7997C37.8601 51.2 38.7197 50.3404 38.7197 49.28V22.4C38.7197 21.3396 37.8601 20.48 36.7997 20.48Z" fill="#5AD6A0"/>
<path d="M38.7203 31.9999C44.0222 31.9999 48.3203 27.7019 48.3203 22.3999C48.3203 17.098 44.0222 12.7999 38.7203 12.7999C33.4184 12.7999 29.1203 17.098 29.1203 22.3999C29.1203 27.7019 33.4184 31.9999 38.7203 31.9999Z" fill="#BDEFD9"/>
<path fill-rule="evenodd" clip-rule="evenodd" d="M38.7203 32V22.4C38.7203 21.3396 37.8607 20.48 36.8003 20.48H29.3124C29.1864 21.1003 29.1203 21.7424 29.1203 22.4C29.1203 27.7019 33.4183 32 38.7203 32Z" fill="#06C16E"/>
<g style="mix-blend-mode:multiply">
<g style="mix-blend-mode:multiply">
<path d="M36.1601 23.6801H18.2401V30.7201H36.1601V23.6801Z" fill="#BDEFD9"/>
</g>
</g>
<path d="M23.3601 35.2H18.2401V39.0399H23.3601V35.2Z" fill="#43C888"/>
<path d="M23.3601 39.6801H18.2401V43.5201H23.3601V39.6801Z" fill="#43C888"/>
<path d="M23.3601 44.16H18.2401V48H23.3601V44.16Z" fill="#43C888"/>
<path d="M29.76 35.2H24.64V39.0399H29.76V35.2Z" fill="#43C888"/>
<path d="M29.76 39.6801H24.64V43.5201H29.76V39.6801Z" fill="#43C888"/>
<path d="M29.76 44.16H24.64V48H29.76V44.16Z" fill="#43C888"/>
<path d="M36.1601 35.2H31.0401V39.0399H36.1601V35.2Z" fill="#43C888"/>
<path d="M36.1601 39.6801H31.0401V43.5201H36.1601V39.6801Z" fill="#43C888"/>
<path d="M36.1601 44.16H31.0401V48H36.1601V44.16Z" fill="#43C888"/>
<path d="M34.8797 22.7201L37.4397 25.2801L43.5197 19.2001" stroke="white" stroke-width="2" stroke-linecap="round"/>
</svg>
