<svg width="64" height="64" viewBox="0 0 64 64" fill="none" xmlns="http://www.w3.org/2000/svg">
<path d="M12.8 26.88C12.8 25.8195 13.6596 24.96 14.72 24.96H42.24C43.3005 24.96 44.16 25.8195 44.16 26.88V49.28C44.16 50.3404 43.3005 51.2 42.24 51.2H14.72C13.6596 51.2 12.8 50.3404 12.8 49.28V26.88Z" fill="#FFDD7F"/>
<path d="M41.6 31.9999C46.9019 31.9999 51.2 27.7019 51.2 22.3999C51.2 17.098 46.9019 12.7999 41.6 12.7999C36.2981 12.7999 32 17.098 32 22.3999C32 27.7019 36.2981 31.9999 41.6 31.9999Z" fill="#FEEEC1"/>
<path fill-rule="evenodd" clip-rule="evenodd" d="M32.345 24.96H42.2399C43.3003 24.96 44.1599 25.8195 44.1599 26.88V31.6549C43.3449 31.8798 42.4864 32 41.5999 32C37.1845 32 33.4653 29.0191 32.345 24.96Z" fill="#FFBE0C"/>
<path d="M12.8 30.72H43.8401" stroke="#FEEEC1"/>
<path d="M21.1203 22.72V27.2" stroke="#FEEEC1"/>
<path d="M35.5199 22.72V27.2" stroke="#FEEEC1"/>
<path d="M38.4593 22.069C38.2881 22.0252 38.1138 22.1285 38.07 22.2997C38.0262 22.471 38.1295 22.6452 38.3008 22.689L38.4593 22.069ZM39.4621 16.4768C39.372 16.3248 39.1757 16.2746 39.0237 16.3647C38.8717 16.4548 38.8215 16.6511 38.9116 16.8032L39.4621 16.4768ZM42.5526 22.3182L42.2774 22.4813L42.5526 22.3182ZM38.3008 22.689L41.7643 23.5746L41.9228 22.9545L38.4593 22.069L38.3008 22.689ZM42.8279 22.155L39.4621 16.4768L38.9116 16.8032L42.2774 22.4813L42.8279 22.155ZM41.7643 23.5746C42.5929 23.7865 43.264 22.8907 42.8279 22.155L42.2774 22.4813C42.4227 22.7266 42.199 23.0251 41.9228 22.9545L41.7643 23.5746Z" fill="#F7FDFA"/>
<path d="M19.8399 38.4H16.6399V41.6H19.8399V38.4Z" fill="#FEEEC1"/>
<path d="M19.8399 42.88H16.6399V46.08H19.8399V42.88Z" fill="#FEEEC1"/>
<path d="M24.9599 33.92H21.7599V37.12H24.9599V33.92Z" fill="#FEEEC1"/>
<path d="M24.9599 38.4H21.7599V41.6H24.9599V38.4Z" fill="#FEEEC1"/>
<path d="M24.9599 42.88H21.7599V46.08H24.9599V42.88Z" fill="#FEEEC1"/>
<path d="M30.0797 33.92H26.8797V37.12H30.0797V33.92Z" fill="#FEEEC1"/>
<path d="M30.0797 38.4H26.8797V41.6H30.0797V38.4Z" fill="#FEEEC1"/>
<path d="M30.0797 42.88H26.8797V46.08H30.0797V42.88Z" fill="#FEEEC1"/>
<path d="M35.2 33.92H32V37.12H35.2V33.92Z" fill="#FEEEC1"/>
<path d="M35.2 38.4H32V41.6H35.2V38.4Z" fill="#FEEEC1"/>
<path d="M40.3203 33.92H37.1203V37.12H40.3203V33.92Z" fill="#FEEEC1"/>
<path d="M40.3203 38.4H37.1203V41.6H40.3203V38.4Z" fill="#FEEEC1"/>
</svg>
