<svg width="37" height="38" viewBox="0 0 37 38" fill="none" xmlns="http://www.w3.org/2000/svg">
<rect x="3.96429" y="7.53027" width="23.4686" height="16.2976" rx="1.11" fill="#FF85BF"/>
<circle cx="26.1291" cy="23.3404" r="7.17095" fill="#A065FE"/>
<path fill-rule="evenodd" clip-rule="evenodd" d="M27.4329 16.2882V22.8828C27.4329 23.4958 26.9359 23.9928 26.3229 23.9928H18.9874C18.968 23.7781 18.9581 23.5606 18.9581 23.3409C18.9581 19.3805 22.1687 16.1699 26.1291 16.1699C26.5743 16.1699 27.0101 16.2105 27.4329 16.2882Z" fill="#7D47E5"/>
<rect x="15.6986" y="13.0801" width="7.82286" height="1.30381" rx="0.651905" fill="#FFE1F0"/>
<rect x="15.6986" y="15.688" width="4.56333" height="1.30381" rx="0.651905" fill="#FFE1F0"/>
<path d="M23.5214 23.3405L25.1512 24.9702L28.7367 21.3848" stroke="#E3D2FF" stroke-width="1.48" stroke-linecap="round" stroke-linejoin="round"/>
<path d="M13.1782 15.3562V18.2137C13.1782 18.4002 13.1117 18.5585 12.9789 18.6885C12.8461 18.8185 12.6892 18.8835 12.5083 18.8835H7.46319C7.28231 18.8835 7.12544 18.8185 6.9926 18.6885C6.85976 18.5585 6.79334 18.4002 6.79334 18.2137V15.3816C6.62941 15.2234 6.52625 15.0396 6.48385 14.8305C6.44145 14.6213 6.45135 14.415 6.51353 14.2115L6.87813 13.0668C6.93466 12.8916 7.02934 12.7517 7.16218 12.6471C7.29502 12.5425 7.44906 12.4902 7.6243 12.4902H12.3133C12.4942 12.4902 12.6553 12.5439 12.7966 12.6513C12.9379 12.7587 13.0368 12.8972 13.0934 13.0668L13.4664 14.2115C13.5286 14.4094 13.5357 14.6114 13.4876 14.8178C13.4396 15.0241 13.3364 15.2036 13.1782 15.3562ZM10.7531 15.034C10.9001 15.034 11.0273 14.9859 11.1347 14.8898C11.2421 14.7937 11.2845 14.675 11.2619 14.5337L11.0499 13.1686H10.2868V14.5252C10.2868 14.6609 10.3306 14.7796 10.4182 14.8814C10.5058 14.9831 10.6174 15.034 10.7531 15.034ZM9.16751 15.034C9.30883 15.034 9.43177 14.9845 9.53635 14.8856C9.64093 14.7867 9.69321 14.6666 9.69321 14.5252V13.1686H8.93009L8.71811 14.5337C8.70115 14.6637 8.73648 14.7796 8.8241 14.8814C8.91172 14.9831 9.02619 15.034 9.16751 15.034ZM7.6243 15.034C7.74866 15.034 7.85606 14.9902 7.94651 14.9026C8.03695 14.8149 8.09065 14.7089 8.10761 14.5846L8.31959 13.1686H7.55646L7.1749 14.3726C7.12403 14.5422 7.14381 14.6948 7.23426 14.8305C7.3247 14.9662 7.45471 15.034 7.6243 15.034ZM12.3472 15.034C12.5168 15.034 12.6482 14.9676 12.7415 14.8347C12.8347 14.7019 12.8559 14.5478 12.8051 14.3726L12.4235 13.1686H11.6604L11.8724 14.5846C11.8893 14.7089 11.943 14.8149 12.0335 14.9026C12.1239 14.9902 12.2285 15.034 12.3472 15.034ZM7.46319 18.2137H12.5083V15.7038C12.5196 15.7038 12.5055 15.7038 12.4659 15.7038C12.4263 15.7038 12.3868 15.7038 12.3472 15.7038C12.2228 15.7038 12.0956 15.677 11.9656 15.6233C11.8356 15.5696 11.7028 15.4862 11.5671 15.3732C11.471 15.4749 11.3551 15.5555 11.2195 15.6148C11.0838 15.6742 10.9368 15.7038 10.7785 15.7038C10.6146 15.7038 10.4719 15.6826 10.3504 15.6402C10.2288 15.5978 10.1087 15.5258 9.98999 15.424C9.89954 15.5145 9.78931 15.5837 9.6593 15.6318C9.52928 15.6798 9.38514 15.7038 9.22686 15.7038C9.05728 15.7038 8.90465 15.6756 8.76899 15.619C8.63332 15.5625 8.51461 15.4806 8.41286 15.3732C8.26589 15.4862 8.12457 15.5696 7.9889 15.6233C7.85324 15.677 7.7317 15.7038 7.6243 15.7038C7.59038 15.7038 7.55788 15.7038 7.52679 15.7038C7.4957 15.7038 7.4745 15.7038 7.46319 15.7038V18.2137ZM12.5083 18.2137H7.46319C7.4745 18.2137 7.4957 18.2137 7.52679 18.2137C7.55788 18.2137 7.59038 18.2137 7.6243 18.2137C7.70344 18.2137 7.81084 18.2137 7.94651 18.2137C8.08217 18.2137 8.23762 18.2137 8.41286 18.2137C8.46939 18.2137 8.52874 18.2137 8.59092 18.2137C8.6531 18.2137 8.71952 18.2137 8.79018 18.2137C8.86084 18.2137 8.93292 18.2137 9.0064 18.2137C9.07989 18.2137 9.15337 18.2137 9.22686 18.2137C9.28904 18.2137 9.35263 18.2137 9.41764 18.2137C9.48265 18.2137 9.54907 18.2137 9.6169 18.2137C9.68474 18.2137 9.75116 18.2137 9.81616 18.2137C9.88117 18.2137 9.93911 18.2137 9.98999 18.2137C10.12 18.2137 10.2472 18.2137 10.3715 18.2137C10.4959 18.2137 10.6316 18.2137 10.7785 18.2137C10.8577 18.2137 10.9354 18.2137 11.0117 18.2137C11.088 18.2137 11.1587 18.2137 11.2237 18.2137C11.2887 18.2137 11.3509 18.2137 11.4102 18.2137C11.4696 18.2137 11.5219 18.2137 11.5671 18.2137C11.7028 18.2137 11.8384 18.2137 11.9741 18.2137C12.1098 18.2137 12.2341 18.2137 12.3472 18.2137C12.3868 18.2137 12.4263 18.2137 12.4659 18.2137C12.5055 18.2137 12.5196 18.2137 12.5083 18.2137Z" fill="#FFE1F0"/>
</svg>
