    <svg xmlns="http://www.w3.org/2000/svg" viewBox="0 0 34 36" width="26px">
      <defs>
        <filter
          id="svg-icici-a"
          width="104.4%"
          height="105.3%"
          x="-2.2%"
          y="-2.7%"
          filterUnits="objectBoundingBox">
          <feOffset dy="2" in="SourceAlpha" result="shadowOffsetOuter1" />
          <feGaussianBlur
            in="shadowOffsetOuter1"
            result="shadowBlurOuter1"
            stdDeviation="2"
          />
          <feColorMatrix
            in="shadowBlurOuter1"
            result="shadowMatrixOuter1"
            values="0 0 0 0 0.86131382 0 0 0 0 0.870479167 0 0 0 0 0.900754929 0 0 0 0.4 0"
          />
          <feMerge>
            <feMergeNode in="shadowMatrixOuter1" />
            <feMergeNode in="SourceGraphic" />
          </feMerge>
        </filter>
      </defs>
      <g
        fill="none"
        fillRule="nonzero"
        filter="url(#svg-icici-a)"
        transform="translate(-340 -261)">
        <path
          fill="#F06321"
          d="M351.246 269.023c6.332-6.285 14.013-7.916 17.087-3.632 3.074 4.284.373 12.942-5.96 19.227-6.33 6.332-14.012 7.961-17.133 3.63-3.025-4.328-.323-12.942 6.006-19.225"
        />
        <path
          fill="#AE282E"
          d="M355.437 265.67a23.138 23.138 0 00-2.094 1.77c-5.54 5.492-7.87 13.034-5.122 16.806 2.84 3.77 9.636 2.374 15.316-3.167 3.074-2.978 5.122-6.425 5.96-9.636.232-2.373-.093-4.47-1.164-6.052-2.42-3.351-7.635-3.074-12.896.279"
        />
        <path
          fill="#FFF"
          d="M363.444 266.368v.14c-.046.79-.512 1.768-1.35 2.606-1.256 1.21-2.931 1.675-3.632.98-.791-.745-.323-2.376.933-3.68 1.303-1.256 2.979-1.675 3.677-.93.233.232.372.512.372.884m-4.84 21.369c-2.98 2.234-6.052 3.353-9.033 2.887 1.256.047 2.283-1.352 3.12-3.213.838-1.908 1.303-3.677 1.722-5.355.605-2.652.652-4.514.326-4.933-.512-.654-1.629-.512-2.934.233-.652.372-1.49.14-.51-1.07 1.024-1.21 4.98-4.098 6.376-4.564 1.585-.419 3.353.186 2.748 1.908-.421 1.257-5.913 15.596-1.815 14.107"
        />
      </g>
    </svg>