<svg width="63" height="64" viewBox="0 0 63 64" fill="none" xmlns="http://www.w3.org/2000/svg">
<path d="M37.5978 37.5975C44.4804 37.5975 50.0599 32.018 50.0599 25.1354C50.0599 18.2528 44.4804 12.6733 37.5978 12.6733C30.7152 12.6733 25.1357 18.2528 25.1357 25.1354C25.1357 32.018 30.7152 37.5975 37.5978 37.5975Z" fill="#A065FE"/>
<path d="M25.1353 50.7923C32.0179 50.7923 37.5974 45.2128 37.5974 38.3302C37.5974 31.4476 32.0179 25.8682 25.1353 25.8682C18.2527 25.8682 12.6732 31.4476 12.6732 38.3302C12.6732 45.2128 18.2527 50.7923 25.1353 50.7923Z" fill="#E3D2FF"/>
<path fill-rule="evenodd" clip-rule="evenodd" d="M37.5767 37.5976C30.9498 37.5865 25.536 32.4031 25.157 25.8687C31.7838 25.8797 37.1976 31.0632 37.5767 37.5976Z" fill="#7D47E5"/>
<path d="M34.6655 26.5776V18.5376H40.0857L38.1309 23.5035H43.4622L34.6655 33.1989L38.0865 26.5776H34.6655Z" fill="white"/>
<path d="M28.7724 34.0915H27.1227V36.2044H28.7724C28.9182 36.2044 29.0581 36.2613 29.1612 36.3627C29.2643 36.4642 29.3223 36.6017 29.3223 36.7451C29.3223 36.8885 29.2643 37.026 29.1612 37.1274C29.0581 37.2289 28.9182 37.2858 28.7724 37.2858H27.1227V38.4574C27.1011 39.0611 26.884 39.6421 26.503 40.1159C26.1219 40.5896 25.597 40.9313 25.0045 41.0909C24.5045 41.2463 23.9743 41.284 23.4567 41.2011L25.4934 44.105C25.5756 44.2233 25.6068 44.3687 25.58 44.5095C25.5533 44.6503 25.4709 44.775 25.3508 44.856C25.2721 44.928 25.1723 44.9735 25.0656 44.9863C24.9775 44.9868 24.8906 44.966 24.8125 44.9259C24.7344 44.8858 24.6675 44.8274 24.6176 44.7559L21.0025 39.6691C20.9379 39.5497 20.9201 39.4111 20.9527 39.2797C20.9853 39.1483 21.0659 39.0333 21.1791 38.9566C21.2924 38.8798 21.4304 38.8468 21.5669 38.8637C21.7033 38.8806 21.8286 38.9462 21.919 39.0482C22.2037 39.4896 22.6281 39.8267 23.1267 40.0076C23.6254 40.1886 24.1707 40.2033 24.6787 40.0496C25.0487 39.9612 25.3797 39.7574 25.622 39.4685C25.8644 39.1797 26.005 38.8214 26.0229 38.4474V37.2858H21.4608C21.3149 37.2858 21.1751 37.2289 21.072 37.1274C20.9688 37.026 20.9109 36.8885 20.9109 36.7451C20.9109 36.6017 20.9688 36.4641 21.072 36.3627C21.1751 36.2613 21.315 36.2044 21.4608 36.2044H26.0229V34.0915H21.4608C21.314 34.0889 21.1742 34.0297 21.0713 33.9267C20.9685 33.8237 20.9109 33.6851 20.9109 33.5408C20.9109 33.3974 20.9688 33.2598 21.072 33.1584C21.1751 33.057 21.315 33 21.4608 33H28.7724C28.9182 33 29.0581 33.057 29.1612 33.1584C29.2643 33.2598 29.3223 33.3974 29.3223 33.5408C29.3223 33.6851 29.2647 33.8237 29.1619 33.9267C29.059 34.0297 28.9191 34.0889 28.7724 34.0915Z" fill="#A065FE"/>
</svg>
