<svg width="63" height="64" viewBox="0 0 63 64" fill="none" xmlns="http://www.w3.org/2000/svg">
<path d="M37.5978 37.5975C44.4804 37.5975 50.0599 32.018 50.0599 25.1354C50.0599 18.2528 44.4804 12.6733 37.5978 12.6733C30.7152 12.6733 25.1357 18.2528 25.1357 25.1354C25.1357 32.018 30.7152 37.5975 37.5978 37.5975Z" fill="#FF85BF"/>
<path d="M25.1353 50.7923C32.0179 50.7923 37.5974 45.2128 37.5974 38.3302C37.5974 31.4476 32.0179 25.8682 25.1353 25.8682C18.2527 25.8682 12.6732 31.4476 12.6732 38.3302C12.6732 45.2128 18.2527 50.7923 25.1353 50.7923Z" fill="#FFE1F0"/>
<path d="M25.3465 34.8514V36.7524L27.8811 34.2178L25.3465 31.6831V33.5841C22.5457 33.5841 20.2772 35.8526 20.2772 38.6534C20.2772 39.6483 20.5686 40.5734 21.0629 41.3528L21.9881 40.4277C21.7029 39.9017 21.5445 39.2934 21.5445 38.6534C21.5445 36.556 23.249 34.8514 25.3465 34.8514ZM29.63 35.954L28.7049 36.8791C28.9837 37.4114 29.1484 38.0134 29.1484 38.6534C29.1484 40.7508 27.4439 42.4554 25.3465 42.4554V40.5544L22.8118 43.089L25.3465 45.6237V43.7227C28.1473 43.7227 30.4158 41.4542 30.4158 38.6534C30.4158 37.6586 30.1243 36.7334 29.63 35.954Z" fill="#FF85BF"/>
<path fill-rule="evenodd" clip-rule="evenodd" d="M37.5767 37.5976C30.9498 37.5865 25.536 32.4031 25.157 25.8687C31.7838 25.8797 37.1976 31.0632 37.5767 37.5976Z" fill="#E768A2"/>
<path d="M34.6655 26.5776V18.5376H40.0857L38.1309 23.5035H43.4622L34.6655 33.1989L38.0865 26.5776H34.6655Z" fill="white"/>
</svg>
