<svg width="40" height="42" viewBox="0 0 40 42" fill="none" xmlns="http://www.w3.org/2000/svg">
<path d="M38.775 10.475L29.7166 6.56665C32.5 22.0083 27.7916 31.7833 16.2167 36.3416L15.4833 36.6333C17.9794 38.838 20.8805 40.5362 24.025 41.6333C24.3 41.5416 24.55 41.425 24.8083 41.3166C36.7916 36.5666 41.6666 26.45 38.775 10.475V10.475Z" fill="#FEEEC1"/>
<path d="M9.28332 10.475L24.025 4.10832L29.25 6.35832L29.7166 6.56665L20.55 2.59166L15.5083 0.416656L1.19999 6.55832C-1.66667 22.35 3.33332 32.225 15.4583 36.6416L16.4417 35.0833C10.25 29.5 7.14166 22.3833 9.28332 10.475Z" fill="#FFDD7F"/>
<path d="M29.7166 6.56664L29.25 6.35831L24.025 4.10831L9.28332 10.475C7.14166 22.3833 9.28332 31.0416 15.4833 36.6333L16.2167 36.3416C27.7916 31.7833 32.5 22.0083 29.7166 6.56664Z" fill="#FFBE0C"/>
</svg>
