<svg width="460" height="460" viewBox="0 0 460 460" fill="none" xmlns="http://www.w3.org/2000/svg">
<path d="M361.472 204.605L399.1 70.6525C399.717 68.4302 399.734 66.0843 399.15 63.8532C398.566 61.6222 397.402 59.5854 395.776 57.95C394.15 56.3146 392.12 55.1388 389.892 54.5421C387.664 53.9453 385.318 53.949 383.092 54.5525L31.5605 153.269C29.082 153.956 26.864 155.365 25.1881 157.316C23.5122 159.268 22.4543 161.673 22.1486 164.227C21.8429 166.781 22.3033 169.368 23.4714 171.659C24.6394 173.951 26.4623 175.843 28.7085 177.097L184.004 264.497C186.069 265.686 187.783 267.4 188.972 269.465L276.28 424.945C277.534 427.191 279.426 429.014 281.718 430.182C284.009 431.35 286.596 431.81 289.15 431.505C291.704 431.199 294.109 430.141 296.061 428.465C298.012 426.789 299.421 424.571 300.108 422.093L341.416 275.997L361.472 204.605Z" fill="#A065FE"/>
<path d="M426.696 209.298L354.476 229.998L326.324 329.726L369.656 406.822C370.426 408.214 371.593 409.345 373.008 410.071C374.424 410.796 376.024 411.083 377.603 410.896C379.183 410.708 380.671 410.054 381.877 409.017C383.083 407.981 383.953 406.608 384.376 405.074L436.54 219.142C436.916 217.778 436.924 216.339 436.563 214.971C436.201 213.603 435.484 212.355 434.483 211.355C433.483 210.354 432.235 209.637 430.867 209.275C429.499 208.914 428.06 208.922 426.696 209.298V209.298Z" fill="#5AD6A0"/>
<path d="M240.764 261.464C239.32 261.97 238.049 262.875 237.098 264.074C236.148 265.273 235.556 266.717 235.392 268.238C235.229 269.76 235.5 271.296 236.173 272.67C236.847 274.044 237.897 275.198 239.2 276L320.896 322C322.166 322.717 323.215 323.766 323.932 325.036L326.508 329.636L354.476 230L240.764 261.464Z" fill="#7D47E5"/>
<path d="M392.202 61.543L190.446 264.035" stroke="#7D47E5" stroke-linecap="round" stroke-linejoin="round"/>
</svg>
