<svg width="59" height="40" viewBox="0 0 59 40" fill="none" xmlns="http://www.w3.org/2000/svg">
<path d="M49.3532 21.8466H58.2154L37.2224 3.42651L16.2294 21.8466H25.0916V39.9999H49.3532V21.8466V21.8466Z" fill="#BDEFD9"/>
<path d="M49.3532 21.8466H58.2154L37.2224 3.42651L16.2294 21.8466H25.0916V39.9999H49.3532V21.8466V21.8466Z" fill="#BDEFD9"/>
<path d="M37.1988 0.856567H0V24.8019H37.1988V0.856567Z" fill="#5AD6A0"/>
<path d="M37.1988 0.856567H0V24.8019H37.1988V0.856567Z" fill="#5AD6A0"/>
<path d="M20.0101 7.35339H16.8917V15.1496H20.0101V7.35339Z" fill="#BDEFD9"/>
<path d="M18.4509 19.6047C19.312 19.6047 20.0101 18.9066 20.0101 18.0454C20.0101 17.1843 19.312 16.4862 18.4509 16.4862C17.5897 16.4862 16.8917 17.1843 16.8917 18.0454C16.8917 18.9066 17.5897 19.6047 18.4509 19.6047Z" fill="#BDEFD9"/>
<path fill-rule="evenodd" clip-rule="evenodd" d="M37.1988 3.44727L16.2294 21.8467H25.0916V24.802H37.1988V3.44727Z" fill="#06C16E"/>
</svg>
