    <svg
      xmlns="http://www.w3.org/2000/svg"
      width="24"
      height="24"
      fill="none"
      viewBox="0 0 24 24">
      <path
        fill="#6933D3"
        d="M16.969 10.503h4.13v7.295h-4.13v-7.295zM9.936 10.503h4.13v7.295h-4.13v-7.295zM21.885 19.114H2.109a1.32 1.32 0 00-1.318 1.318v1.538a1.32 1.32 0 001.318 1.319h19.776a1.32 1.32 0 001.318-1.319v-1.538a1.32 1.32 0 00-1.318-1.318z"
      />
      <path
        fill="#6933D3"
        fillRule="evenodd"
        d="M12.487.893l9.89 4.044c.502.202.826.682.826 1.223v1.707a1.32 1.32 0 01-1.318 1.319H2.109A1.32 1.32 0 01.791 7.867V6.16c0-.541.324-1.02.826-1.223L11.503.895c.322-.13.67-.127.984-.002zm-.49 5.481a.66.66 0 00.66-.66V4.31a.66.66 0 00-1.32 0v1.406c0 .364.296.659.66.659z"
        clipRule="evenodd"
      />
      <path fill="#6933D3" d="M2.9 10.503h4.131v7.295h-4.13v-7.295z" />
    </svg>