<svg width="55" height="34" viewBox="0 0 55 34" fill="none" xmlns="http://www.w3.org/2000/svg">
<path d="M37.1988 0H0V23.9454H37.1988V0Z" fill="#7D47E5"/>
<path d="M35.133 16.2758V14.133H32.867V14.133C29.6267 14.133 27 16.7597 27 20C27 23.2402 29.6267 25.867 32.867 25.867H35.133V16.2758" fill="#E3D2FF"/>
<path d="M46.8669 14.133V25.867H49.1329V25.867C52.3732 25.867 54.9999 23.2402 54.9999 20C54.9999 16.7597 52.3732 14.133 49.1329 14.133H46.8669Z" fill="#E3D2FF"/>
<path d="M44.7241 14.133H46.8669V11.867V11.867C46.8669 8.62674 44.2402 6 40.9999 6C37.7597 6 35.1329 8.62674 35.1329 11.867V14.133H44.7241Z" fill="#E3D2FF"/>
<path d="M44.7241 25.867H35.1329V28.133V28.133C35.1329 31.3732 37.7597 34 40.9999 34V34C44.2402 34 46.8669 31.3732 46.8669 28.133C46.8669 28.133 46.8669 28.133 46.8669 28.133V25.867L44.7241 25.867Z" fill="#E3D2FF"/>
<path d="M44.7241 14.133H35.1329V16.2758V23.7241V25.867H37.2758H44.7241H46.8669V23.7241V16.2758V14.133H44.7241V14.133Z" fill="#A065FE"/>
<path d="M44.5686 20C44.5686 21.9709 42.9709 23.5686 41 23.5686C39.0291 23.5686 37.4314 21.9709 37.4314 20C37.4314 18.0291 39.0291 16.4313 41 16.4313V16.4313C42.9709 16.4313 44.5686 18.0291 44.5686 20V20Z" fill="#E3D2FF"/>
<path d="M20.0101 6.49683H16.8916V14.293H20.0101V6.49683Z" fill="#E3D2FF"/>
<path d="M18.4508 18.748C19.312 18.748 20.0101 18.05 20.0101 17.1888C20.0101 16.3277 19.312 15.6296 18.4508 15.6296C17.5897 15.6296 16.8916 16.3277 16.8916 17.1888C16.8916 18.05 17.5897 18.748 18.4508 18.748Z" fill="#E3D2FF"/>
</svg>
