<svg width="33" height="34" viewBox="0 0 33 34" fill="none" xmlns="http://www.w3.org/2000/svg">
<path fill-rule="evenodd" clip-rule="evenodd" d="M7.4082 2.72H13.887H22.137V10.9344H30.2725V24.65V31.1916H7.4082V2.72Z" fill="#A065FE"/>
<path d="M22.1368 2.72V10.9344H30.2723" fill="#E3D2FF"/>
<path d="M22.6051 14.28H3.36732C2.99537 14.28 2.69385 14.5844 2.69385 14.96V26.52C2.69385 26.8956 2.99537 27.2 3.36732 27.2H22.6051C22.9771 27.2 23.2786 26.8956 23.2786 26.52V14.96C23.2786 14.5844 22.9771 14.28 22.6051 14.28Z" fill="#E3D2FF"/>
<path fill-rule="evenodd" clip-rule="evenodd" d="M7.4082 27.2V14.28H22.6052C22.9771 14.28 23.2786 14.5844 23.2786 14.96V26.52C23.2786 26.8956 22.9771 27.2 22.6052 27.2H7.4082Z" fill="#7D47E5"/>
<path d="M20.4966 17.0887H5.47534V19.8974H20.4966V17.0887Z" fill="#A065FE"/>
<path d="M20.4966 21.5826H5.47534V24.3913H20.4966V21.5826Z" fill="#A065FE"/>
</svg>
