<svg width="42" height="41" viewBox="0 0 42 41" fill="none" xmlns="http://www.w3.org/2000/svg">
<g clip-path="url(#clip0)">
<path d="M20.9 20V20.05C21.7507 20.856 22.878 21.3053 24.05 21.3053C25.2219 21.3053 26.3492 20.856 27.2 20.05L28.06 19.22C27.4992 17.82 26.647 16.5553 25.56 15.51C24.4794 14.4744 23.2004 13.6682 21.8 13.14L20.89 14.01C20.4868 14.398 20.1663 14.8635 19.9476 15.3786C19.729 15.8937 19.6167 16.4476 19.6177 17.0071C19.6186 17.5667 19.7327 18.1203 19.9531 18.6346C20.1734 19.1489 20.4955 19.6134 20.9 20Z" fill="#FFDD7F"/>
<path d="M20 26.94L14.23 32.47C13.3759 33.2693 12.2498 33.7141 11.08 33.7141C9.91018 33.7141 8.78411 33.2693 7.92999 32.47C7.52589 32.0818 7.20438 31.616 6.98476 31.1005C6.76514 30.5849 6.65193 30.0304 6.65193 29.47C6.65193 28.9097 6.76514 28.3551 6.98476 27.8396C7.20438 27.324 7.52589 26.8582 7.92999 26.47L13.73 20.91C12.7252 18.4244 12.7252 15.6456 13.73 13.16C12.289 13.6908 10.972 14.511 9.85999 15.57L3.24999 21.91C2.21923 22.8779 1.39772 24.0467 0.836154 25.3444C0.274585 26.6421 -0.0151367 28.041 -0.0151367 29.455C-0.0151367 30.869 0.274585 32.2679 0.836154 33.5656C1.39772 34.8633 2.21923 36.0321 3.24999 37C5.3607 39.016 8.17123 40.1345 11.09 40.12C14.012 40.136 16.8262 39.0175 18.94 37L25.61 30.61C26.6715 29.5903 27.5093 28.3609 28.07 27C25.4715 27.9732 22.6085 27.9732 20.01 27L20 26.94Z" fill="#FFDD7F"/>
<path d="M38.61 3.11001C36.4846 1.11173 33.6772 -0.000793457 30.76 -0.000793457C27.8427 -0.000793457 25.0353 1.11173 22.91 3.11001L16.25 9.51001C15.1835 10.5237 14.342 11.7502 13.78 13.11C16.382 12.137 19.248 12.137 21.85 13.11L27.61 7.58001C28.4618 6.77623 29.5888 6.32851 30.76 6.32851C31.9312 6.32851 33.0581 6.77623 33.91 7.58001C34.3219 7.96886 34.65 8.43774 34.8743 8.9579C35.0986 9.47807 35.2143 10.0386 35.2143 10.605C35.2143 11.1715 35.0986 11.732 34.8743 12.2521C34.65 12.7723 34.3219 13.2412 33.91 13.63L28.11 19.19C29.12 21.6746 29.12 24.4554 28.11 26.94C29.5521 26.4115 30.8695 25.5911 31.98 24.53L38.65 18.13C39.676 17.1625 40.4935 15.9954 41.0522 14.7006C41.6109 13.4057 41.8992 12.0103 41.8992 10.6C41.8992 9.18973 41.6109 7.79433 41.0522 6.49946C40.4935 5.20458 39.676 4.03756 38.65 3.07001L38.61 3.11001Z" fill="#FF85BF"/>
<path d="M20.9 20C20.0486 19.1991 18.9238 18.7532 17.755 18.7532C16.5861 18.7532 15.4613 19.1991 14.61 20L13.74 20.84C14.3006 22.2425 15.1567 23.5079 16.25 24.55C17.3284 25.5885 18.6033 26.401 20 26.94L20.9 26.07C21.3041 25.6818 21.6256 25.216 21.8452 24.7005C22.0648 24.1849 22.178 23.6304 22.178 23.07C22.178 22.5097 22.0648 21.9551 21.8452 21.4396C21.6256 20.9241 21.3041 20.4582 20.9 20.07V20Z" fill="#FF85BF"/>
<path d="M28.11 19.23L27.25 20.06C26.3993 20.866 25.2719 21.3153 24.1 21.3153C22.9281 21.3153 21.8007 20.866 20.95 20.06C21.3541 20.4482 21.6756 20.914 21.8952 21.4296C22.1148 21.9451 22.228 22.4997 22.228 23.06C22.228 23.6204 22.1148 24.1749 21.8952 24.6905C21.6756 25.206 21.3541 25.6718 20.95 26.06L20.05 26.93C22.6485 27.9032 25.5115 27.9032 28.11 26.93C29.1065 24.4601 29.1065 21.7 28.11 19.23Z" fill="#E768A2"/>
<path d="M13.74 20.86L14.61 20.02C15.4613 19.2192 16.5862 18.7732 17.755 18.7732C18.9238 18.7732 20.0487 19.2192 20.9 20.02C20.4946 19.6326 20.172 19.167 19.9516 18.6513C19.7311 18.1357 19.6175 17.5808 19.6175 17.02C19.6175 16.4593 19.7311 15.9043 19.9516 15.3887C20.172 14.8731 20.4946 14.4075 20.9 14.02L21.81 13.15C19.208 12.177 16.342 12.177 13.74 13.15C12.746 15.6239 12.746 18.3861 13.74 20.86Z" fill="#FFBE0C"/>
</g>
<defs>
<clipPath id="clip0">
<rect width="41.86" height="40.09" fill="white"/>
</clipPath>
</defs>
</svg>
