<svg width="51" height="45" viewBox="0 0 51 45" fill="none" xmlns="http://www.w3.org/2000/svg">
<path d="M32.7833 44.6416H32.9833C32.9833 44.5166 32.9833 44.3833 32.9833 44.25C32.9167 44.3833 32.8583 44.5166 32.7917 44.6416" fill="#A065FF"/>
<path d="M0 11.6583V11.659C-2.73784e-06 29.7909 14.6358 44.5229 32.7673 44.6417H32.7673C22.0447 38.91 15.3473 27.7418 15.3417 15.5834V15.4417H15.3417C10.6113 12.9524 5.34541 11.6538 0 11.6584" fill="#FF85BF"/>
<path d="M19.2333 0V1.58946e-06C16.6877 4.74951 15.3511 10.0529 15.3417 15.4417C26.0647 21.0767 32.8348 32.1373 32.975 44.25C41.2703 28.2244 35.1473 8.5075 19.2333 0" fill="#FFE1F0"/>
<path d="M15.3417 15.4417V15.5833L15.3417 15.5797C15.3459 27.738 22.0417 38.907 32.7635 44.64C32.8302 44.515 32.8885 44.3816 32.9552 44.2483V44.2483C32.8183 32.1406 26.0565 21.0818 15.3417 15.4417" fill="#E768A2"/>
<path d="M46.5 17.4167C44.1067 17.4167 42.1666 19.3568 42.1666 21.75C42.1666 24.1432 44.1067 26.0833 46.5 26.0833C48.8932 26.0833 50.8333 24.1432 50.8333 21.75V21.75C50.8379 19.3613 48.9053 17.4213 46.5166 17.4167C46.5111 17.4167 46.5055 17.4167 46.5 17.4167" fill="#FFE1F0"/>
</svg>
