<svg width="50" height="50" viewBox="0 0 50 50" fill="none" xmlns="http://www.w3.org/2000/svg">
<g clip-path="url(#clip0_301_97)">
<path d="M38.9259 30.6852V48H21.7346V25.1678H33.4085C34.8718 25.1678 36.2752 25.7491 37.3099 26.7838C38.3446 27.8185 38.9259 29.2219 38.9259 30.6852Z" fill="#FFDD7F"/>
<path d="M30.2631 36.6256C30.2636 37.7398 30.0446 38.8432 29.6187 39.8728C29.1927 40.9023 28.568 41.8379 27.7804 42.626C26.9928 43.4141 26.0577 44.0393 25.0284 44.466C23.9991 44.8926 22.8958 45.1123 21.7816 45.1125H21.7346V28.1442H21.7816C24.031 28.1442 26.1883 29.0377 27.7789 30.6283C29.3695 32.2189 30.2631 34.3762 30.2631 36.6256Z" fill="#FFBE0C"/>
<path d="M32.2777 2H11.5945C11.0011 2 10.52 2.48105 10.52 3.07445V37.9942C10.52 38.5876 11.0011 39.0686 11.5945 39.0686H32.2777C32.8711 39.0686 33.3521 38.5876 33.3521 37.9942V3.07445C33.3521 2.48105 32.8711 2 32.2777 2Z" fill="#A065FE"/>
<path fill-rule="evenodd" clip-rule="evenodd" d="M33.3521 25.1678H21.7346V39.0686H32.2777C32.8711 39.0686 33.3521 38.5875 33.3521 37.9941V25.1678Z" fill="#7D47E5"/>
<path fill-rule="evenodd" clip-rule="evenodd" d="M29.9049 39.0686C30.1424 38.2775 30.2635 37.4545 30.2631 36.6255C30.2631 34.3761 29.3695 32.2188 27.7789 30.6282C26.1883 29.0376 24.031 28.144 21.7816 28.144H21.7346V39.0686H29.9049Z" fill="#7D47E5"/>
<path d="M31.2704 39.673L20.4225 29.0345C20.0229 28.6429 19.7049 28.1759 19.487 27.6605C19.269 27.1452 19.1554 26.5918 19.1526 26.0322C19.1499 25.4727 19.2581 24.9182 19.471 24.4008C19.6839 23.8833 19.9972 23.4132 20.3929 23.0176C21.1802 22.2311 22.2454 21.7859 23.3582 21.7783C24.4711 21.7708 25.5422 22.2015 26.34 22.9773L33.3522 29.9357V17.2397L37.9562 23.7576C38.5875 24.6772 38.9255 25.7663 38.9259 26.8816V39.673H31.2704Z" fill="#FFDD7F"/>
<path d="M33.3521 5.22339H10.52V5.76061H33.3521V5.22339Z" fill="#7D47E5"/>
<path d="M17 12V13.4552C17.8586 13.4552 18.7087 13.6245 19.5019 13.9534C20.2951 14.2823 21.0159 14.7644 21.623 15.3721C22.2301 15.9798 22.7116 16.7013 23.0402 17.4954C23.3688 18.2895 23.5379 19.1405 23.5379 20H25C24.9977 17.8775 24.1539 15.8427 22.6538 14.3426C21.1538 12.8426 19.1203 12 17 12ZM17 14.9103V16.3655C17.9628 16.3659 18.886 16.749 19.5668 17.4305C20.2475 18.112 20.6302 19.0362 20.6306 20H22.0843C22.0847 19.3315 21.9535 18.6694 21.6981 18.0517C21.4428 17.434 21.0683 16.8728 20.5961 16.4001C20.1239 15.9274 19.5632 15.5525 18.9462 15.2968C18.3291 15.0412 17.6678 14.9099 17 14.9103Z" fill="#E3D2FF"/>
<path d="M28 20H26.4823C26.4796 17.486 25.4797 15.0757 23.702 13.298C21.9243 11.5203 19.514 10.5204 17 10.5177V9C19.9164 9.00318 22.7124 10.1631 24.7747 12.2253C26.8369 14.2876 27.9968 17.0836 28 20Z" fill="#E3D2FF"/>
</g>
<defs>
<clipPath id="clip0_301_97">
<rect width="28.4058" height="46" fill="white" transform="translate(10.52 2)"/>
</clipPath>
</defs>
</svg>
