<svg width="49" height="39" viewBox="0 0 49 39" fill="none" xmlns="http://www.w3.org/2000/svg">
<path d="M36.29 17.74V3.54999C36.29 2.75434 35.9739 1.99128 35.4113 1.42867C34.8487 0.866058 34.0857 0.549988 33.29 0.549988L3 0.549988C2.20435 0.549988 1.44129 0.866058 0.87868 1.42867C0.31607 1.99128 0 2.75434 0 3.54999L0 22.64C0 23.4356 0.31607 24.1987 0.87868 24.7613C1.44129 25.3239 2.20435 25.64 3 25.64H27.7C28.2041 23.6283 29.2861 21.8082 30.8126 20.4043C32.3391 19.0004 34.2432 18.0742 36.29 17.74Z" fill="#FF85BF"/>
<path d="M36.29 6.01999H0V7.01999H36.29V6.01999Z" fill="#E768A2"/>
<path d="M38 17.6C37.4307 17.606 36.8626 17.6528 36.3 17.74V22.64C36.3 23.4356 35.9839 24.1987 35.4213 24.7613C34.8587 25.3239 34.0956 25.64 33.3 25.64H27.7C27.1562 27.7827 27.2953 30.0417 28.0977 32.1016C28.9002 34.1614 30.3261 35.9191 32.1761 37.1292C34.0261 38.3393 36.2079 38.9413 38.4167 38.8512C40.6255 38.761 42.7509 37.9832 44.4962 36.6263C46.2414 35.2695 47.5193 33.4014 48.1512 31.283C48.7831 29.1646 48.7376 26.9018 48.021 24.8105C47.3044 22.7193 45.9524 20.9041 44.154 19.6185C42.3557 18.333 40.2006 17.6412 37.99 17.64L38 17.6Z" fill="#FFDD7F"/>
<path d="M36.29 22.64V17.74C34.2458 18.0728 32.3435 18.996 30.8172 20.3961C29.291 21.7962 28.2075 23.612 27.7 25.62H33.31C34.0987 25.6147 34.8537 25.2991 35.4114 24.7414C35.9691 24.1837 36.2848 23.4287 36.29 22.64Z" fill="#E768A2"/>
<path d="M43.23 32.6C43.1506 32.6004 43.072 32.5834 43 32.55L38.34 29.81C38.2672 29.7691 38.2065 29.7096 38.1644 29.6375C38.1222 29.5655 38.1 29.4835 38.1 29.4V22.28C38.1025 22.1535 38.1539 22.0329 38.2434 21.9434C38.3329 21.8539 38.4535 21.8025 38.58 21.8C38.7073 21.8 38.8294 21.8506 38.9194 21.9406C39.0094 22.0306 39.06 22.1527 39.06 22.28V29.11L43.49 31.71C43.5977 31.7745 43.6759 31.8788 43.7077 32.0003C43.7394 32.1218 43.7223 32.2509 43.66 32.36C43.6175 32.4358 43.5548 32.4984 43.4789 32.5408C43.403 32.5832 43.3168 32.6037 43.23 32.6Z" fill="#FFBE0C"/>
<path d="M20.43 14.99H5.10999C4.97738 14.99 4.8502 14.9373 4.75643 14.8435C4.66266 14.7498 4.60999 14.6226 4.60999 14.49C4.61255 14.3582 4.66605 14.2325 4.75926 14.1393C4.85248 14.0461 4.97818 13.9926 5.10999 13.99H20.43C20.5626 13.99 20.6898 14.0427 20.7835 14.1364C20.8773 14.2302 20.93 14.3574 20.93 14.49C20.93 14.6226 20.8773 14.7498 20.7835 14.8435C20.6898 14.9373 20.5626 14.99 20.43 14.99Z" fill="#FFE1F0"/>
<path d="M16.89 19.27H5.10999C4.97818 19.2674 4.85248 19.2139 4.75926 19.1207C4.66605 19.0275 4.61255 18.9018 4.60999 18.77C4.60999 18.6374 4.66266 18.5102 4.75643 18.4164C4.8502 18.3227 4.97738 18.27 5.10999 18.27H16.89C17.0226 18.27 17.1498 18.3227 17.2435 18.4164C17.3373 18.5102 17.39 18.6374 17.39 18.77C17.39 18.9026 17.3373 19.0298 17.2435 19.1235C17.1498 19.2173 17.0226 19.27 16.89 19.27Z" fill="#FFE1F0"/>
</svg>
