<svg width="64" height="64" viewBox="0 0 64 64" fill="none" xmlns="http://www.w3.org/2000/svg">
<path d="M27.5201 18.7507C27.5201 17.6903 28.3797 16.8307 29.4401 16.8307H49.2801C50.3405 16.8307 51.2001 17.6903 51.2001 18.7507V31.5371C51.2001 32.5974 50.3405 33.4571 49.2801 33.4571H29.4401C28.3797 33.4571 27.5201 32.5975 27.5201 31.5371V18.7507Z" fill="#A065FE"/>
<path fill-rule="evenodd" clip-rule="evenodd" d="M39.1081 20.8613C41.3342 20.8613 43.1388 19.0568 43.1388 16.8307C43.1388 14.6047 41.3342 12.8 39.1081 12.8C36.8821 12.8 35.0775 14.6047 35.0775 16.8307C35.0775 19.0568 36.8821 20.8613 39.1081 20.8613ZM39.1081 19.3498C40.4994 19.3498 41.6273 18.222 41.6273 16.8307C41.6273 15.4394 40.4994 14.3115 39.1081 14.3115C37.7168 14.3115 36.5889 15.4394 36.5889 16.8307C36.5889 18.222 37.7168 19.3498 39.1081 19.3498Z" fill="#A065FE"/>
<path d="M26.56 51.2C34.1595 51.2 40.32 45.0395 40.32 37.44C40.32 29.8406 34.1595 23.6801 26.56 23.6801C18.9606 23.6801 12.8 29.8406 12.8 37.44C12.8 45.0395 18.9606 51.2 26.56 51.2Z" fill="#E3D2FF"/>
<path fill-rule="evenodd" clip-rule="evenodd" d="M39.8025 33.6886H29.4401C28.3797 33.6886 27.5201 32.829 27.5201 31.7686V23.713C33.3935 24.1178 38.2531 28.2084 39.8025 33.6886Z" fill="#7D47E5"/>
<path d="M20.1599 37.76L24.6399 42.24L33.5999 33.28" stroke="white" stroke-width="2"/>
</svg>
