<svg width="64" height="64" viewBox="0 0 64 64" fill="none" xmlns="http://www.w3.org/2000/svg">
<path d="M34.5599 30.72H29.4399C25.1984 30.72 21.7599 34.1584 21.7599 38.4V43.52C21.7599 47.7615 25.1984 51.2 29.4399 51.2H34.5599C38.8015 51.2 42.24 47.7615 42.24 43.52V38.4C42.24 34.1584 38.8015 30.72 34.5599 30.72Z" fill="#A065FE"/>
<path d="M31.68 24.3199L50.5601 33.5999L31.68 42.8799L12.8 33.5999L31.68 24.3199Z" fill="#A065FE"/>
<path d="M40.3202 33.2799C45.9756 33.2799 50.5602 28.6953 50.5602 23.0399C50.5602 17.3845 45.9756 12.7999 40.3202 12.7999C34.6648 12.7999 30.0802 17.3845 30.0802 23.0399C30.0802 28.6953 34.6648 33.2799 40.3202 33.2799Z" fill="#E3D2FF"/>
<path fill-rule="evenodd" clip-rule="evenodd" d="M30.2701 25.0131L31.6801 24.3199L46.1729 31.4435C44.514 32.6011 42.4964 33.2799 40.3201 33.2799C35.3396 33.2799 31.1897 29.7244 30.2701 25.0131Z" fill="#7D47E5"/>
<path d="M35.2 22.2977L39.1056 26.2401L46.08 19.2001" stroke="white" stroke-width="2"/>
</svg>
