<svg width="29" height="22" viewBox="0 0 29 22" fill="none" xmlns="http://www.w3.org/2000/svg"><path d="M28.06 12.91h-8.709l4.358-4.192 4.351 4.192Z" fill="#FFDB7F"/><path d="M8.828 8.718H.126l4.351 4.192 4.351-4.192Z" fill="#FFBC0C"/><path d="M14.09 21.885c-3.415 0-6.59-1.535-8.703-4.206l1.561-1.235a9.051 9.051 0 0 0 7.142 3.448c4.995 0 9.054-3.986 9.054-8.889h1.993c0 5.999-4.956 10.882-11.047 10.882Z" fill="#E1D0FF"/><path d="M5.035 11.003H3.042C3.042 5.005 7.998.122 14.09.122a11.1 11.1 0 0 1 9.114 4.743L21.57 6.001a9.103 9.103 0 0 0-7.48-3.893c-4.99.007-9.055 3.993-9.055 8.895Z" fill="#9E65FC"/><path d="M28.06 12.91h-8.709l4.358-4.192 4.351 4.192Z" fill="#E1D0FF"/><path d="M8.828 8.718H.126l4.351 4.192 4.351-4.192Z" fill="#9E65FC"/><path d="m12.489 15.48 2.298-9.114a.566.566 0 0 1 .997-.206l3.447 4.558a.566.566 0 0 1-.1.784l-5.745 4.557c-.419.338-1.023-.053-.897-.578Z" fill="#C2EFDA"/><path d="m9.665 15.48 2.299-9.114a.566.566 0 0 1 .996-.206l3.448 4.558a.566.566 0 0 1-.1.784l-5.746 4.557c-.418.338-1.03-.053-.897-.578Z" fill="#5AD6A0"/><path fill-rule="evenodd" clip-rule="evenodd" d="m14.375 8.027 2.04 2.698a.566.566 0 0 1-.1.783l-3.52 2.79 1.58-6.27Z" fill="#06C16E"/></svg>