<svg width="50" height="50" viewBox="0 0 50 50" fill="none" xmlns="http://www.w3.org/2000/svg">
<rect x="2.68915" y="4" width="36.1436" height="28.1117" rx="1.33865" fill="#5AD6A0"/>
<path d="M7.59753 9.35461H29.6853M7.59753 12.255H20.7609M7.59753 14.9323H16.2988M22.992 12.255H27.9004M18.5299 14.9323H26.3387" stroke="#06C16E" stroke-width="0.892434" stroke-linecap="round"/>
<rect x="10.7211" y="18.279" width="36.5898" height="28.1117" rx="1.33865" fill="#A065FE"/>
<path fill-rule="evenodd" clip-rule="evenodd" d="M38.8327 18.279V30.773C38.8327 31.5123 38.2334 32.1117 37.4941 32.1117H10.7211V19.6176C10.7211 18.8783 11.3204 18.279 12.0597 18.279H38.8327Z" fill="#7D47E5"/>
<path d="M21.4302 27.8068V24.526H24.711V25.6639H22.5681V27.8068H21.4302ZM21.4302 39.6974V36.4166H22.5681V38.5595H24.711V39.6974H21.4302ZM33.3208 39.6974V38.5595H35.4638V36.4166H36.6016V39.6974H33.3208ZM35.4638 27.8068V25.6639H33.3208V24.526H36.6016V27.8068H35.4638ZM33.3398 36.4545H34.5345V37.6492H33.3398V36.4545ZM33.3398 34.065H34.5345V35.2598H33.3398V34.065ZM32.145 35.2598H33.3398V36.4545H32.145V35.2598ZM30.9503 36.4545H32.145V37.6492H30.9503V36.4545ZM29.7555 35.2598H30.9503V36.4545H29.7555V35.2598ZM32.145 32.8703H33.3398V34.065H32.145V32.8703ZM30.9503 34.065H32.145V35.2598H30.9503V34.065ZM29.7555 32.8703H30.9503V34.065H29.7555V32.8703ZM34.5345 26.5741V31.3531H29.7555V26.5741H34.5345ZM28.2574 32.8703V37.6492H23.4784V32.8703H28.2574ZM28.2574 26.5741V31.3531H23.4784V26.5741H28.2574ZM27.3091 36.701V33.8185H24.4266V36.701H27.3091ZM27.3091 30.4049V27.5223H24.4266V30.4049H27.3091ZM33.5863 30.4049V27.5223H30.7037V30.4049H33.5863Z" fill="white"/>
</svg>
