<svg width="31" height="42" viewBox="0 0 31 42" fill="none" xmlns="http://www.w3.org/2000/svg">
<path d="M5.79441 3.25833L5.53607 3.45833L5.79441 3.25833ZM6.19441 2.95L5.79441 3.25833L6.19441 2.95Z" fill="#CDF3E2"/>
<path d="M19.311 0.583328L20.061 0.824995L19.311 0.583328Z" fill="#CDF3E2"/>
<path d="M18.0861 0.283339H18.2361H18.0861ZM17.4277 0.166672L18.0861 0.283339L17.4277 0.166672Z" fill="#CDF3E2"/>
<path d="M20.7277 1.07499L20.9444 1.16666L20.7277 1.07499ZM20.2944 0.908325L20.7277 1.07499L20.2944 0.908325Z" fill="#CDF3E2"/>
<path d="M18.361 0.34166C18.6277 0.399993 18.9027 0.466659 19.1944 0.549993C18.9277 0.466659 18.661 0.399993 18.361 0.34166Z" fill="#CDF3E2"/>
<path d="M3.99441 4.90833L3.62775 5.32499C3.75275 5.18333 3.86941 5.04166 3.99441 4.90833Z" fill="#CDF3E2"/>
<path d="M7.2944 2.20833C7.0444 2.36666 6.7944 2.52499 6.55273 2.69166C6.7944 2.52499 7.0444 2.36666 7.2944 2.20833ZM7.5944 2.03333L7.2944 2.20833L7.5944 2.03333Z" fill="#CDF3E2"/>
<path d="M22.3694 1.85834L22.6944 2.03334L22.4027 1.88334" fill="#CDF3E2"/>
<path d="M4.9444 3.99167C4.77773 4.15 4.61106 4.3 4.4444 4.46667L4.9444 3.99167Z" fill="#CDF3E2"/>
<path d="M21.536 1.43333L21.811 1.55833L21.536 1.43333ZM21.311 1.325L21.536 1.43333L21.311 1.325Z" fill="#CDF3E2"/>
<path d="M10.2277 0.824997L9.99438 0.908331L10.2277 0.824997Z" fill="#CDF3E2"/>
<path d="M12.0527 0.316666L11.9277 0.341665L12.0527 0.316666Z" fill="#CDF3E2"/>
<path d="M13.0277 0.141663L12.861 0.166662L13.0277 0.141663Z" fill="#CDF3E2"/>
<path d="M11.1194 0.550003L10.9777 0.583336L11.1194 0.550003Z" fill="#CDF3E2"/>
<path d="M17.1527 0.125002H17.261H17.1527ZM16.511 0.0500031L17.1527 0.125002L16.511 0.0500031Z" fill="#CDF3E2"/>
<path d="M23.736 2.69167L24.0944 2.95L23.736 2.69167Z" fill="#CDF3E2"/>
<path d="M8.47773 1.55833L7.92773 1.85833L8.47773 1.55833Z" fill="#CDF3E2"/>
<path d="M9.31106 1.16667L8.9444 1.32501L9.31106 1.16667Z" fill="#CDF3E2"/>
<path d="M28.4027 7.84167L28.4944 8.00833C28.467 7.95108 28.4364 7.89543 28.4027 7.84167V7.84167ZM28.3527 7.75L28.4027 7.84167L28.3527 7.75Z" fill="#CDF3E2"/>
<path d="M29.8194 11.5083L29.8361 11.5833L29.8194 11.5083Z" fill="#CDF3E2"/>
<path d="M27.6443 6.64166C27.7277 6.75833 27.8027 6.875 27.8777 7C27.8027 6.875 27.7277 6.75833 27.6443 6.64166Z" fill="#CDF3E2"/>
<path d="M0.352722 12.025L0.227722 12.7167L0.352722 12.025ZM0.452722 11.5833C0.411056 11.7333 0.386055 11.875 0.352722 12.025L0.452722 11.5833Z" fill="#CDF3E2"/>
<path d="M2.1777 7.325L1.93604 7.73334L2.1777 7.325ZM2.38604 6.98334L2.1777 7.325L2.38604 6.98334Z" fill="#CDF3E2"/>
<path d="M30.061 12.7083L30.0777 12.8167L30.061 12.7083Z" fill="#CDF3E2"/>
<path d="M0.14436 13.4917C0.14436 13.6667 0.14436 13.8417 0.0943604 14.0167C0.0943604 13.8417 0.0943599 13.6667 0.14436 13.4917ZM0.227693 12.8333C0.227693 13.05 0.16936 13.2667 0.14436 13.4917C0.14436 13.2667 0.19436 13.05 0.227693 12.8333Z" fill="#CDF3E2"/>
<path d="M9.31102 29.2L7.55269 28.1583C2.52759 25.2798 -0.391626 19.7657 0.0526901 13.9917C0.0526901 14.3583 0.0110241 14.7417 0.0110241 15.1167V17.6167L0.144357 41.325L15.1444 32.5917L9.71935 29.4333L9.31102 29.2Z" fill="#5AD6A0"/>
<path d="M25.8444 4.44167L26.2944 4.90833L25.8444 4.44167Z" fill="#CDF3E2"/>
<path d="M2.93605 6.18332C2.82772 6.33332 2.71938 6.48332 2.61938 6.64166C2.71938 6.48332 2.82772 6.33332 2.93605 6.18332ZM3.23605 5.79166L2.93605 6.18332L3.23605 5.79166Z" fill="#CDF3E2"/>
<path d="M26.986 5.71666L27.0527 5.79166L26.986 5.71666ZM26.661 5.325L26.986 5.71666L26.661 5.325Z" fill="#CDF3E2"/>
<path d="M24.9944 3.66666L25.336 3.96666L24.9944 3.66666ZM24.7527 3.45833L24.9944 3.66666L24.7527 3.45833Z" fill="#CDF3E2"/>
<path d="M0.486023 11.4333C0.486023 11.4333 0.486023 11.4833 0.486023 11.5083C0.486023 11.5333 0.486023 11.4583 0.486023 11.4333ZM0.544356 11.2167C0.521034 11.2878 0.501561 11.3601 0.486023 11.4333C0.501561 11.3601 0.521034 11.2878 0.544356 11.2167ZM0.544356 11.1417V11.2167V11.1417ZM1.04436 9.60833C0.952689 9.85 0.861023 10.0917 0.786023 10.3417C0.711023 10.5917 0.619356 10.875 0.544356 11.175V11.175C0.684629 10.6557 0.851516 10.1439 1.04436 9.64167V9.60833ZM1.04436 9.55833V9.64167V9.55833ZM1.81102 8.00833C1.54934 8.50032 1.31563 9.00668 1.11102 9.525L1.11102 9.525C1.31886 9.00806 1.55249 8.50187 1.81102 8.00833" fill="#CDF3E2"/>
<path d="M8.82769 1.39166L8.46936 1.55833L8.82769 1.39166ZM8.97769 1.325L8.82769 1.39166L8.97769 1.325Z" fill="#CDF3E2"/>
<path d="M9.56103 1.07499L9.34436 1.16666L9.56103 1.07499ZM9.99436 0.908325L9.56103 1.07499L9.99436 0.908325Z" fill="#CDF3E2"/>
<path d="M10.9777 0.583328L10.2277 0.824995L10.9777 0.583328Z" fill="#CDF3E2"/>
<path d="M0.227727 12.7167L0.21106 12.8167L0.227727 12.7167Z" fill="#CDF3E2"/>
<path d="M6.55273 2.69167L6.1944 2.95L6.55273 2.69167Z" fill="#CDF3E2"/>
<path d="M5.2944 3.66666L4.9444 3.96666L5.2944 3.66666ZM5.53606 3.45833L5.2944 3.66666L5.53606 3.45833Z" fill="#CDF3E2"/>
<path d="M0.469363 11.5083L0.452698 11.5833L0.469363 11.5083Z" fill="#CDF3E2"/>
<path d="M4.44438 4.44167L3.99438 4.90833L4.44438 4.44167Z" fill="#CDF3E2"/>
<path d="M2.64441 6.64166C2.56107 6.75833 2.48607 6.875 2.41107 7C2.48607 6.875 2.56107 6.75833 2.64441 6.64166Z" fill="#CDF3E2"/>
<path d="M7.91935 1.85833L7.62769 2.00833L7.95269 1.83333" fill="#CDF3E2"/>
<path d="M3.41936 5.575C3.35383 5.64336 3.2926 5.71572 3.23602 5.79166H3.23602C3.2926 5.71572 3.35383 5.64336 3.41936 5.575ZM3.62769 5.325L3.41936 5.575L3.62769 5.325Z" fill="#CDF3E2"/>
<path d="M1.93603 7.75L1.81104 7.975L1.93603 7.75Z" fill="#CDF3E2"/>
<path d="M27.0527 5.79166C27.2694 6.06666 27.4777 6.34999 27.6694 6.62499C27.4777 6.33332 27.2694 6.04999 27.0527 5.79166Z" fill="#CDF3E2"/>
<path d="M26.2944 4.90833L26.661 5.32499C26.536 5.18333 26.4194 5.04166 26.2944 4.90833Z" fill="#CDF3E2"/>
<path d="M25.3361 3.99167C25.5111 4.15 25.6861 4.30833 25.8444 4.46667C25.6777 4.3 25.5111 4.15 25.3361 3.99167Z" fill="#CDF3E2"/>
<path d="M24.4944 3.25833L24.7527 3.45833L24.4944 3.25833ZM24.0944 2.95L24.4944 3.25833C24.3694 3.15 24.2277 3.05 24.0944 2.95Z" fill="#CDF3E2"/>
<path d="M22.9944 2.20833C23.2444 2.36666 23.4944 2.52499 23.7361 2.69166C23.4944 2.52499 23.2444 2.36666 22.9944 2.20833ZM22.6944 2.03333L22.9944 2.20833L22.6944 2.03333Z" fill="#CDF3E2"/>
<path d="M30.2527 15.0583V15.0584C30.2981 20.4624 27.433 25.4731 22.7527 28.1751L20.9777 29.2L20.5694 29.4334L15.1444 32.5917L30.1444 41.325L30.2194 17.675V15.0584L30.2527 15.0583ZM30.2194 14.8167C30.2194 14.8584 30.2194 14.9 30.2194 14.9334C30.2194 14.9667 30.2194 14.8584 30.2194 14.8167ZM30.2194 14.2834C30.2194 14.35 30.2194 14.425 30.2194 14.4917C30.2194 14.425 30.2194 14.3584 30.2194 14.2834ZM30.2194 14.175C30.2153 14.211 30.2153 14.2474 30.2194 14.2834C30.2153 14.2474 30.2153 14.211 30.2194 14.175ZM30.2194 14.0834C30.2194 14.0834 30.2194 14.1417 30.2194 14.175C30.2194 14.2084 30.2194 14.1167 30.2194 14.0834Z" fill="#C2EFDA"/>
<path d="M28.1194 7.325L28.3527 7.73334L28.1194 7.325ZM27.9027 6.98334C27.9694 7.1 28.0444 7.20834 28.1194 7.325C28.0444 7.20834 27.9777 7.09167 27.9027 6.98334Z" fill="#CDF3E2"/>
<path d="M21.811 1.55833L22.3694 1.85833C22.186 1.75 22.0027 1.65 21.811 1.55833Z" fill="#CDF3E2"/>
<path d="M29.6277 10.7833C29.6944 11.025 29.761 11.2667 29.8194 11.5083C29.761 11.2667 29.6944 11.025 29.6277 10.7833ZM29.4277 10.15L29.6277 10.7833C29.586 10.6333 29.536 10.4833 29.486 10.3417C29.436 10.2 29.4444 10.2083 29.4277 10.15ZM29.4277 10.05C29.4277 10.05 29.4277 10.1167 29.4277 10.15C29.4277 10.1833 29.4277 10.0833 29.4277 10.05ZM29.4277 10.0083V10.05V10.0083ZM28.5944 8.05833C28.9196 8.68702 29.1981 9.33878 29.4277 10.0083C29.1977 9.33894 28.9192 8.68721 28.5944 8.05833Z" fill="#CDF3E2"/>
<path d="M30.1444 13.4333L30.1944 14.0167L30.1444 13.4333ZM30.061 12.8167C30.061 13.025 30.1194 13.225 30.1444 13.4333C30.1444 13.225 30.0944 13.025 30.061 12.8167Z" fill="#CDF3E2"/>
<path d="M29.9194 11.9417C29.9694 12.2 30.0194 12.4583 30.061 12.7083C30.061 12.45 29.9694 12.1917 29.9194 11.9417ZM29.8444 11.6083C29.8781 11.7173 29.9032 11.8287 29.9194 11.9417V11.9417C29.9023 11.8289 29.8772 11.7175 29.8444 11.6083Z" fill="#CDF3E2"/>
<path d="M11.9277 0.34166C11.6527 0.399993 11.386 0.466659 11.0944 0.549993C11.361 0.466659 11.636 0.399993 11.9277 0.34166Z" fill="#CDF3E2"/>
<path d="M13.136 0.125002H13.0277H13.136ZM13.7777 0.0500031L13.136 0.125002L13.7777 0.0500031Z" fill="#CDF3E2"/>
<path d="M20.9777 1.16667L21.3444 1.32501L20.9777 1.16667Z" fill="#CDF3E2"/>
<path d="M12.2694 0.266672L12.0527 0.316672L12.2694 0.266672ZM12.8611 0.166672L12.2694 0.266672L12.8611 0.166672Z" fill="#CDF3E2"/>
<path d="M19.1694 0.550003L19.311 0.583336L19.1694 0.550003Z" fill="#CDF3E2"/>
<path d="M17.261 0.141663L17.4277 0.166662L17.261 0.141663Z" fill="#CDF3E2"/>
<path d="M20.061 0.824997L20.2944 0.908331L20.061 0.824997Z" fill="#CDF3E2"/>
<path d="M18.236 0.316666L18.361 0.341665L18.236 0.316666Z" fill="#CDF3E2"/>
<path d="M20.9777 29.2L22.736 28.1583C27.7611 25.2798 30.6804 19.7657 30.236 13.9917C30.236 13.5917 30.161 13.1583 30.1027 12.7917V12.6917C30.0471 12.3083 29.9721 11.9333 29.8777 11.5667V11.4833V11.4833C29.787 11.0889 29.6758 10.6995 29.5444 10.3167H29.5444C29.258 9.51711 28.901 8.74461 28.4777 8.00833L28.336 7.74999C28.1944 7.49999 28.0444 7.24166 27.886 6.99999C27.7277 6.75833 27.736 6.75833 27.6527 6.64166C27.461 6.35 27.2527 6.06666 27.036 5.80833L26.6444 5.34166L26.2777 4.92499C26.1277 4.76666 25.986 4.60833 25.8277 4.45833C25.6694 4.30833 25.4944 4.14166 25.3194 3.98333L24.736 3.475C24.5194 3.3 24.3027 3.125 24.0777 2.96666L23.7194 2.70833C23.386 2.48333 23.036 2.25833 22.6777 2.05L22.3527 1.875C22.1694 1.775 21.986 1.66666 21.7944 1.575L21.2944 1.34166L20.9777 1.16666L20.3277 0.90833L20.0944 0.824998L19.3444 0.583331H19.2027C18.936 0.499998 18.6694 0.433331 18.3694 0.374998H18.2444C17.9777 0.316665 17.711 0.266664 17.411 0.224998H17.2444L16.4944 0.133331H16.2027C15.9944 0.133331 15.786 0.133331 15.5861 0.133331H14.6694C14.461 0.133331 14.2611 0.133331 14.0527 0.133331H13.761L13.0111 0.224998H12.8444C12.5694 0.266664 12.3027 0.316665 12.0111 0.374998H11.886C11.611 0.433331 11.3444 0.499998 11.0527 0.583331H10.9111L10.1611 0.824998L9.92772 0.90833L9.27772 1.16666L8.91105 1.325L8.40272 1.55833L7.85272 1.85833L7.52772 2.03333C7.16938 2.24166 6.81939 2.46666 6.48605 2.69166L6.12772 2.95C5.90272 3.10833 5.68605 3.28333 5.46939 3.45833L4.88605 3.96666C4.71105 4.125 4.53605 4.28333 4.37772 4.44166L3.92772 4.90833L3.56105 5.325C3.43605 5.475 3.29439 5.63333 3.16939 5.79166C3.04439 5.95 2.74439 6.34999 2.55272 6.62499C2.46939 6.74166 2.39439 6.85833 2.31939 6.98333C2.24439 7.10833 2.01105 7.48333 1.86939 7.73333L1.72772 7.99166C1.32881 8.73858 0.996958 9.51942 0.736055 10.325C0.604653 10.7078 0.493391 11.0972 0.402723 11.4916V11.5666C0.311057 11.9416 0.236056 12.3166 0.177723 12.7V12.8C0.11939 13.2 0.06939 13.6333 0.04439 14V14C-0.399931 19.7741 2.51929 25.2881 7.54439 28.1666L9.31105 29.2L9.71939 29.4333L15.1444 32.5916L20.5694 29.4333L20.9777 29.2Z" fill="#06C16E"/>
<path d="M15.6694 8.46667L17.4527 12.0667C17.4843 12.1466 17.5587 12.2016 17.6444 12.2083L21.6194 12.7833C21.7606 12.8041 21.8582 12.9353 21.8375 13.0765C21.8291 13.1331 21.8023 13.1853 21.7611 13.225L18.8861 16.025C18.822 16.0808 18.7932 16.1669 18.8111 16.25L19.4861 20.2083C19.5093 20.3491 19.4141 20.4821 19.2733 20.5053C19.221 20.514 19.1672 20.5063 19.1194 20.4833L15.5611 18.6083H15.3277L11.8111 20.4833C11.6824 20.5451 11.5281 20.4908 11.4664 20.3622C11.4434 20.3144 11.4358 20.2607 11.4444 20.2083L12.1194 16.25C12.1372 16.1669 12.1085 16.0808 12.0444 16.025L9.1694 13.225C9.06664 13.126 9.06356 12.9625 9.16253 12.8597C9.20222 12.8185 9.25446 12.7916 9.31107 12.7833L13.2861 12.2083C13.3718 12.2016 13.4462 12.1466 13.4777 12.0667L15.2527 8.46667C15.3371 8.35161 15.4988 8.32672 15.6138 8.41109C15.6351 8.42667 15.6538 8.44541 15.6694 8.46667V8.46667Z" fill="#C2EFDA"/>
</svg>
