    <svg
      xmlns="http://www.w3.org/2000/svg"
      id="svg"
      x="0"
      y="0"
      version="1.1"
      viewBox="0 0 400 400"
      xmlSpace="preserve"
      width="30px">
      <path
        d="M182 1A199 199 0 0053 64l90 1 91 1a2137 2137 0 00-57 98 9604 9604 0 00-96 161l-14 25 4 4c75 67 200 60 272-15l5-5h-91l-92-1 25-44 4-6a702 702 0 0123-38l7-12 24-39 23-39 32-54c29-48 30-49 28-51l-13-11C280 10 229-4 182 1"
        fill="#1eba68"
      />
      <path
        d="M355 78a1233 1233 0 00-43 72 1423 1423 0 00-33 56 48578 48578 0 00-57 95l75 1 76-1 6-12c33-66 27-143-15-204-8-10-7-10-9-7M22 108c-35 69-27 158 19 214l3 3 8-14 19-33 19-30 8-14 65-109 15-26c1-1-33-1-75-1H27l-5 10"
        fill="#1eba68"
      />
    </svg>